<svg width="239" height="315" viewBox="0 0 239 315" fill="none" xmlns="http://www.w3.org/2000/svg">
<g clip-path="url(#clip0_288_821)">
<rect width="238.823" height="314.118" fill="#01503A"/>
<path d="M118.076 0C118.943 0.0363567 119.691 2.07833 120.042 2.85457C122.155 7.53259 124.119 12.2803 126.154 16.9921L136.788 41.5557L143.48 57.158C144.652 59.8866 146.228 63.1655 147.185 65.9091C144.584 67.5924 141.84 69.0987 139.204 70.7453L121.567 81.8232C118.702 83.5856 116.047 85.6298 113.165 87.2842C112.88 95.373 113.066 104.164 112.926 112.336C110.864 108.181 108.663 103.011 106.729 98.7148L96.6202 76.5804C95.7181 78.2464 94.8092 80.6774 94.0007 82.439C91.9137 86.9862 90.1042 91.8198 88.0974 96.3659L69.9996 137.845C67.6784 143.167 65.4895 148.479 63.0784 153.769C67.2729 153.935 72.1975 153.72 76.4708 153.779C88.3253 153.945 100.479 153.613 112.311 153.907C112.283 157.173 112.522 162.289 112.178 165.434C108.394 165.735 101.109 165.527 97.073 165.525L73.3808 165.495C68.3999 165.473 63.081 165.352 58.1327 165.49C57.0694 167.169 55.4506 171.227 54.6031 173.206C52.6507 177.712 50.7388 182.235 48.8674 186.775C45.6837 193.808 42.4266 201.405 44.3348 209.203C47.0346 220.234 61.3778 221.164 70.5971 221.206C70.6661 222.728 70.6586 223.889 70.6068 225.415C67.6837 225.656 62.4194 225.497 59.2909 225.497L38.0342 225.496H13.9016C9.73557 225.498 4.1209 225.66 0.109666 225.4C-0.0188945 223.75 -0.00314977 222.3 0.00584571 220.652C9.79892 218.593 18.2693 215.832 24.8933 207.739C29.2224 202.451 32.3472 193.607 35.1279 187.159L45.7662 162.341L93.6319 51.4612L108.627 17.2964L112.942 7.43514C113.747 5.59444 114.546 3.69827 115.471 1.91304C116.018 0.85832 117.035 0.490628 118.076 0Z" fill="url(#paint0_linear_288_821)"/>
<path d="M172.721 15.6787C174.598 16.8354 176.789 18.4111 178.639 19.6731C178.741 22.0588 178.585 25.3661 178.567 27.8548C178.539 34.0576 178.474 40.26 178.373 46.462L178.015 92.8876L176.258 217.534C176.133 218.451 176.069 218.943 176.073 219.864L175.918 219.877C175.883 219.597 175.802 219.326 175.736 219.053C174.265 151.269 173.26 83.4761 172.721 15.6787Z" fill="url(#paint1_linear_288_821)"/>
<path d="M180.723 21.0117C182.64 22.231 184.534 23.4851 186.404 24.7733C185.928 89.9036 185.046 155.03 183.756 220.149L183.397 221.177C183.536 215.581 183.029 208.018 182.903 202.307L182.273 165.59L181.318 81.7926L180.953 48.9682C180.769 39.6507 180.693 30.331 180.723 21.0117Z" fill="url(#paint2_linear_288_821)"/>
<path d="M165.461 62.1815C167.045 61.2842 168.854 59.9941 170.497 59.3086C170.841 63.5522 170.583 71.3517 170.544 75.7662L170.311 104.392L169.149 185.024L168.784 205.536C168.663 210.663 168.422 215.903 168.408 221.016L168.037 221.381C168.088 216.178 167.787 210.59 167.661 205.351L167.138 176.815L165.461 62.1815Z" fill="url(#paint3_linear_288_821)"/>
<path d="M162.785 63.6104C163.767 64.9619 161.759 154.251 161.794 164.969C161.835 177.21 161.069 196.208 160.826 209.117C160.768 212.155 160.87 220.627 160.443 223.483L160.372 222.126C159.897 218.098 160.174 213.709 160.051 209.642C159.419 188.73 159.216 167.799 158.859 146.882L157.898 66.6231C159.739 65.5815 161.036 64.827 162.785 63.6104Z" fill="url(#paint4_linear_288_821)"/>
<path d="M150.255 70.9241C151.678 70.1021 153.98 68.8578 155.291 67.9912C154.836 119.252 154.015 170.51 152.829 221.759C152.768 220.932 152.692 220.588 152.509 219.77C152.457 209.935 152.045 200.086 151.889 190.259L150.713 110.76C150.568 100.118 150.498 89.4364 150.273 78.7925C150.218 76.1883 150.203 73.5279 150.255 70.9241Z" fill="url(#paint5_linear_288_821)"/>
<path d="M142.469 76.0111C144.453 74.8619 145.801 73.9987 147.646 72.6719C147.444 81.3862 147.309 90.1017 147.243 98.8183L146.469 163.497C146.402 180.326 146.085 197.153 145.519 213.972C145.582 217.179 145.509 220.387 145.301 223.587C145.04 221.452 144.944 219.298 145.015 217.148C144.973 211.282 144.582 204.953 144.433 199.058L143.563 153.758L142.946 103.743C142.828 94.7404 142.893 84.9196 142.469 76.0111Z" fill="url(#paint6_linear_288_821)"/>
<path d="M145.015 217.147C145.253 217.899 145.23 218.498 145.263 219.279C145.284 217.639 145.261 215.547 145.519 213.972C145.581 217.179 145.509 220.387 145.301 223.587C145.04 221.451 144.944 219.298 145.015 217.147Z" fill="url(#paint7_linear_288_821)"/>
<path d="M139.714 77.7969L139.995 77.8805C140.216 78.4828 140.125 81.3992 140.107 82.2841C139.221 124.338 139.049 166.415 137.89 208.459C137.846 210.067 137.739 220.143 137.389 220.853L137.328 219.342C136.917 213.135 136.878 205.708 136.727 199.455C136.373 188.119 136.119 176.78 135.965 165.44L134.979 80.6046C136.573 79.6953 138.151 78.7594 139.714 77.7969Z" fill="url(#paint8_linear_288_821)"/>
<path d="M132.244 82.1465C132.564 83.4643 132.319 92.7278 132.292 94.5707L131.929 119.901C131.609 144.788 131.348 170.141 130.657 194.997C130.528 201.183 130.366 207.368 130.172 213.553C130.118 215.814 130.158 220.701 129.866 222.791C129.642 222.452 129.675 221.862 129.639 221.395C129.62 212.39 129.155 202.975 128.937 193.925L128.17 148.828L127.776 109.349C127.734 101.662 127.906 92.4523 127.516 84.9227C128.938 84.0101 130.759 83.013 132.244 82.1465Z" fill="url(#paint9_linear_288_821)"/>
<path d="M119.914 89.3813L124.861 86.4619C124.592 90.8311 124.788 96.1328 124.698 100.59L124.079 133.671L122.475 216.209L122.265 217.183L122.331 217.093L122.169 217.232C122.087 216.779 122.125 215.038 121.989 214.081L121.956 213.855C121.64 205.872 121.674 197.718 121.503 189.71L120.308 118.792C120.163 108.984 120.194 99.2006 119.914 89.3813Z" fill="url(#paint10_linear_288_821)"/>
<path d="M149.094 0.47168C150.509 1.10773 153.347 3.062 155.32 4.04064C155.386 14.8896 155.334 25.7392 155.165 36.5874C155.088 46.1717 155.157 55.6754 154.906 65.2586L153.792 65.997L150.3 67.9741C149.802 60.1765 149.888 51.6668 149.729 43.7965C149.384 29.3573 149.172 14.915 149.094 0.47168Z" fill="url(#paint11_linear_288_821)"/>
<path d="M188.684 96.791C190.3 97.8247 191.928 98.8412 193.566 99.8397C193.521 111 193.144 122.129 192.982 133.254L192.166 187.342L191.556 209.017C191.437 212.874 191.229 216.187 191.267 220.08L190.902 220.447C190.931 210.028 190.313 198.642 190.052 188.157L189.219 132.852L188.909 108.844C188.846 104.746 188.631 100.927 188.684 96.791Z" fill="url(#paint12_linear_288_821)"/>
<path d="M188.298 26.1895C190.21 27.2168 192.074 28.4754 193.902 29.6565C194.244 38.3986 193.861 49.3048 193.738 58.1515L193.415 95.6491L193.334 96.0521C192.379 96.115 189.791 94.2001 188.843 93.5734C188.844 71.2234 188.176 48.5447 188.298 26.1895Z" fill="url(#paint13_linear_288_821)"/>
<path d="M203.473 35.7646C205.441 37.0844 207.242 38.1818 209.282 39.3936C209.162 56.0311 208.922 72.6675 208.563 89.3016C208.446 94.4376 208.537 99.5197 208.34 104.674L208.287 105.007L207.967 105.068C206.595 104.428 205.323 103.592 204.192 102.585C204.284 94.9504 203.997 85.9144 203.901 78.2342L203.473 35.7646Z" fill="url(#paint14_linear_288_821)"/>
<path d="M195.945 30.8828C197.429 31.7378 199.967 33.5552 201.374 34.5653C201.478 46.2066 201.112 58.1856 201.045 69.8456C200.988 79.8152 201.163 90.1604 200.725 100.084L200.629 100.355L200.389 100.417C199.095 99.8024 197.777 98.9718 196.539 98.2289L196.074 55.6189C195.969 47.7002 195.715 38.7134 195.945 30.8828Z" fill="url(#paint15_linear_288_821)"/>
<path d="M196.541 101.567C198.116 102.109 199.428 103.073 200.802 103.999C200.797 116.432 200.69 128.864 200.478 141.295C200.254 167.149 199.801 192.999 199.12 218.845C199.035 219.281 198.946 219.716 198.854 220.151L198.605 219.039C198.585 214.836 198.369 210.595 198.266 206.388L197.673 181.838C197.39 167.159 197.2 152.479 197.104 137.798C196.933 125.842 196.44 113.481 196.541 101.567Z" fill="url(#paint16_linear_288_821)"/>
<path d="M157.376 5.58398C158.864 6.41044 161.642 8.37558 163.163 9.3812C163.144 26.0292 162.646 43.5842 162.997 60.1273C162.439 60.5673 161.74 61.0467 161.156 61.4714C159.915 62.4414 159.339 62.7319 157.918 63.2618C157.526 44.0385 157.346 24.8114 157.376 5.58398Z" fill="url(#paint17_linear_288_821)"/>
<path d="M204.387 106.182C205.737 107.083 207.105 107.957 208.489 108.806C208.136 116.006 208.253 124.525 208.193 131.825L207.759 169.851L207.149 204.956C207.059 209.914 206.718 216.15 206.826 220.988L206.473 220.848C206.297 209.773 205.793 198.573 205.519 187.468C204.903 160.376 204.525 133.28 204.387 106.182Z" fill="url(#paint18_linear_288_821)"/>
<path d="M212.142 111.082C213.843 111.859 214.848 112.365 216.382 113.452L214.992 190.826C214.785 201.051 214.224 211.402 214.117 221.572C213.98 220.357 214.156 220.026 213.793 218.645C213.726 211.535 213.252 204.487 213.083 197.403L212.456 154.008C212.238 139.774 211.845 125.293 212.142 111.082Z" fill="url(#paint19_linear_288_821)"/>
<path d="M219.2 115.126C220.749 116.173 222.054 117.054 223.687 117.983C223.679 124.768 223.399 131.503 223.316 138.266L222.525 193.832C222.317 202.841 221.862 212.209 221.808 221.171C221.725 220.644 221.585 220.104 221.465 219.581C220.992 213.208 220.989 205.046 220.79 198.611C220.301 184.846 220.013 171.074 219.929 157.299L219.554 133.599C219.401 127.554 219.068 121.152 219.2 115.126Z" fill="url(#paint20_linear_288_821)"/>
<path d="M226.85 120.001C228.444 121.026 229.7 121.927 231.21 123.048C230.988 126.297 231.089 130.956 231.017 134.331C230.779 144.308 230.637 154.286 230.59 164.266L229.909 205.358C229.794 211.216 229.526 216.835 229.483 222.74C229.448 223.201 229.492 223.867 229.259 224.146C228.776 221.017 228.78 212.492 228.675 208.921L227.915 173.526L227.084 135.444C226.999 130.501 226.706 124.923 226.85 120.001Z" fill="url(#paint21_linear_288_821)"/>
<path d="M165.098 10.6221C167.086 11.9328 168.937 13.1284 170.823 14.5835C170.831 28.4459 170.75 42.3079 170.58 56.1692L168.703 57.1103C167.444 57.55 166.609 58.0357 165.51 58.7572C165.656 56.0009 165.439 51.0511 165.424 48.0462L165.204 24.4485C165.148 19.8293 164.97 15.2397 165.098 10.6221Z" fill="url(#paint22_linear_288_821)"/>
<path d="M234.37 124.704L238.823 127.398C238.511 131.195 238.58 136.617 238.511 140.57C238.306 148.473 238.171 156.377 238.105 164.282L237.528 199.959C237.377 207.271 237.063 214.54 236.999 221.877C237.098 222.882 237.17 223.226 236.958 224.202L236.86 224.139L236.969 223.986L236.811 223.918C236.555 221.861 236.619 219.247 236.658 217.145L235.331 161.997L234.687 137.339C234.576 133.2 234.357 128.842 234.37 124.704Z" fill="url(#paint23_linear_288_821)"/>
<path d="M236.656 217.145C237.115 218.702 236.713 221.172 236.997 221.876C237.095 222.882 237.168 223.226 236.956 224.201L236.858 224.138L236.967 223.986L236.809 223.917C236.553 221.861 236.617 219.246 236.656 217.145Z" fill="url(#paint24_linear_288_821)"/>
<path d="M121.955 213.855L121.989 214.082C122.124 215.038 122.086 216.779 122.169 217.233L122.33 217.093L122.264 217.183L122.475 216.209C122.537 217.633 122.423 221.367 122.154 222.71C121.932 222.454 121.941 214.683 121.955 213.855Z" fill="url(#paint25_linear_288_821)"/>
<path d="M198.606 219.039L198.855 220.151C198.947 219.716 199.036 219.281 199.121 218.845C199.166 220.828 199.145 222.444 198.849 224.42C198.72 222.673 198.527 220.776 198.606 219.039Z" fill="url(#paint26_linear_288_821)"/>
<path d="M175.737 219.053C175.802 219.327 175.883 219.598 175.918 219.877L176.073 219.865C176.069 218.944 176.133 218.451 176.258 217.534C176.335 219.834 176.072 221.999 176.043 224.284C175.773 222.554 175.67 220.802 175.737 219.053Z" fill="url(#paint27_linear_288_821)"/>
<path d="M213.792 218.646C214.156 220.027 213.979 220.358 214.117 221.573C214.241 222.563 214.13 223.976 214.089 225.006C213.732 222.795 213.744 220.876 213.792 218.646Z" fill="url(#paint28_linear_288_821)"/>
<path d="M183.396 221.177L183.755 220.148C183.774 221.463 183.859 222.879 183.587 224.15L183.52 224.211C183.387 223.342 183.354 222.054 183.396 221.177Z" fill="url(#paint29_linear_288_821)"/>
<path d="M206.473 220.849L206.826 220.988C206.847 221.944 206.855 222.687 206.797 223.653L206.542 223.584L206.711 223.999L206.655 224.038L206.76 223.663L206.522 223.683C206.389 222.845 206.457 221.72 206.473 220.849Z" fill="url(#paint30_linear_288_821)"/>
<path d="M221.467 219.582C221.587 220.105 221.727 220.645 221.809 221.172C221.853 222.044 221.791 223.476 221.777 224.388C221.368 222.683 221.442 221.326 221.467 219.582Z" fill="url(#paint31_linear_288_821)"/>
<path d="M190.902 220.447L191.267 220.08C191.264 221.376 191.283 222.728 191.21 224.016C190.992 222.565 190.902 221.902 190.902 220.447Z" fill="url(#paint32_linear_288_821)"/>
<path d="M168.037 221.382L168.407 221.018C168.424 221.91 168.524 222.823 168.237 223.646C167.931 223.162 168.015 222.001 168.037 221.382Z" fill="url(#paint33_linear_288_821)"/>
<path d="M152.509 219.77C152.692 220.588 152.768 220.931 152.83 221.759C152.88 222.466 152.84 222.79 152.773 223.503C152.416 222.562 152.474 220.768 152.509 219.77Z" fill="url(#paint34_linear_288_821)"/>
<g clip-path="url(#clip1_288_821)">
<path d="M0.0322462 285.467C-0.0107487 285.037 -0.0107487 284.607 0.0322462 284.177C1.45108 284.048 2.50445 283.898 3.19237 283.726C3.92328 283.511 4.50371 283.059 4.93366 282.372C5.36362 281.641 5.85805 280.48 6.41699 278.889L20.7343 240.322C21.0782 240.194 21.4867 240.108 21.9596 240.065C22.4756 239.979 22.884 239.936 23.185 239.936L37.6313 279.276C38.1902 280.781 38.6417 281.856 38.9856 282.5C39.3726 283.145 39.91 283.554 40.5979 283.726C41.2859 283.898 42.3607 284.048 43.8225 284.177C43.8656 284.607 43.8656 285.037 43.8225 285.467C42.7047 285.467 41.4363 285.446 40.0175 285.403C38.6417 285.36 37.3733 285.338 36.2124 285.338C35.0086 285.338 33.8693 285.36 32.7943 285.403C31.7625 285.446 30.6446 285.467 29.4408 285.467C29.3977 285.037 29.3977 284.607 29.4408 284.177C30.9455 284.048 31.9345 283.919 32.4074 283.79C32.9233 283.618 33.1813 283.231 33.1813 282.629C33.1813 282.415 33.1383 282.157 33.0523 281.856C32.9664 281.512 32.8374 281.103 32.6654 280.63L28.2154 268.183H12.8662L8.67422 279.921C8.24427 281.082 8.02929 281.92 8.02929 282.436C8.02929 283.124 8.35176 283.554 8.99668 283.726C9.6416 283.898 10.6949 284.048 12.1568 284.177C12.1998 284.607 12.1998 285.037 12.1568 285.467C11.0819 285.467 10.0286 285.446 8.99668 285.403C8.0078 285.36 6.97592 285.338 5.90105 285.338C5.04115 285.338 4.07377 285.36 2.99889 285.403C1.96702 285.446 0.978134 285.467 0.0322462 285.467ZM13.5756 266.184H27.4415L20.4763 246.772L13.5756 266.184Z" fill="url(#paint35_linear_288_821)"/>
<path d="M68.8142 246.578L58.044 265.668V279.856C58.044 281.146 58.1085 282.092 58.2375 282.694C58.4095 283.253 58.8394 283.618 59.5273 283.79C60.2153 283.919 61.3546 284.048 62.9454 284.177C62.9884 284.607 62.9884 285.037 62.9454 285.467C62.3005 285.467 61.5051 285.446 60.5592 285.402C59.6133 285.402 58.6675 285.402 57.7215 285.402C56.8186 285.359 56.0662 285.338 55.4643 285.338C54.8624 285.338 54.0885 285.359 53.1426 285.402C52.2397 285.402 51.3153 285.402 50.3694 285.402C49.4235 285.446 48.6281 285.467 47.9832 285.467C47.9402 285.037 47.9402 284.607 47.9832 284.177C49.574 284.048 50.6919 283.919 51.3368 283.79C52.0248 283.618 52.4546 283.296 52.6266 282.823C52.7987 282.35 52.8846 281.554 52.8846 280.437V266.119L41.8564 246.256C41.0825 244.837 40.4591 243.826 39.9861 243.225C39.5562 242.58 39.0188 242.15 38.3738 241.935C37.7719 241.72 36.826 241.569 35.5362 241.483C35.4931 241.053 35.4931 240.623 35.5362 240.193C36.654 240.193 37.8579 240.215 39.1477 240.258C40.4806 240.301 41.7274 240.322 42.8883 240.322C43.8772 240.322 44.9735 240.301 46.1774 240.258C47.4242 240.215 48.6067 240.193 49.7245 240.193C49.7675 240.623 49.7675 241.053 49.7245 241.483C48.3916 241.526 47.4458 241.655 46.8868 241.87C46.3279 242.042 46.0484 242.365 46.0484 242.838C46.0484 243.224 46.3494 243.955 46.9513 245.03L57.0121 263.282L67.0729 245.03C67.3739 244.514 67.5889 244.106 67.7178 243.805C67.8899 243.461 67.9758 243.182 67.9758 242.967C67.9758 242.494 67.6319 242.171 66.9439 241.999C66.299 241.784 65.2027 241.612 63.6548 241.483C63.6118 241.053 63.6118 240.623 63.6548 240.193C64.4287 240.193 65.4606 240.215 66.7505 240.258C68.0403 240.301 69.0722 240.322 69.8461 240.322C70.8349 240.322 71.8023 240.301 72.7483 240.258C73.7371 240.215 74.7045 240.193 75.6504 240.193C75.6934 240.623 75.6934 241.053 75.6504 241.483C74.3606 241.569 73.3717 241.72 72.6838 241.935C71.9958 242.15 71.3939 242.601 70.878 243.289C70.362 243.977 69.6741 245.073 68.8142 246.578Z" fill="url(#paint36_linear_288_821)"/>
<path d="M66.3584 285.467C66.3154 285.037 66.3154 284.607 66.3584 284.177C67.7773 284.048 68.8306 283.898 69.5186 283.726C70.2494 283.511 70.8299 283.059 71.2599 282.372C71.6898 281.641 72.1842 280.48 72.7432 278.889L87.0605 240.322C87.4044 240.194 87.8129 240.108 88.2858 240.065C88.8018 239.979 89.2102 239.936 89.5112 239.936L103.957 279.276C104.517 280.781 104.968 281.856 105.312 282.5C105.699 283.145 106.236 283.554 106.924 283.726C107.612 283.898 108.687 284.048 110.149 284.177C110.192 284.607 110.192 285.037 110.149 285.467C109.031 285.467 107.763 285.446 106.344 285.403C104.968 285.36 103.7 285.338 102.539 285.338C101.334 285.338 100.195 285.36 99.1205 285.403C98.0887 285.446 96.9708 285.467 95.767 285.467C95.7239 285.037 95.7239 284.607 95.767 284.177C97.2717 284.048 98.2607 283.919 98.7336 283.79C99.2495 283.618 99.5075 283.231 99.5075 282.629C99.5075 282.415 99.4645 282.157 99.3785 281.856C99.2926 281.512 99.1636 281.103 98.9916 280.63L94.5416 268.183H79.1924L75.0004 279.921C74.5704 281.082 74.3555 281.92 74.3555 282.436C74.3555 283.124 74.678 283.554 75.3229 283.726C75.9678 283.898 77.0211 284.048 78.483 284.177C78.526 284.607 78.526 285.037 78.483 285.467C77.4081 285.467 76.3548 285.446 75.3229 285.403C74.334 285.36 73.3022 285.338 72.2273 285.338C71.3674 285.338 70.4 285.36 69.3251 285.403C68.2932 285.446 67.3044 285.467 66.3584 285.467ZM79.9018 266.184H93.7677L86.8025 246.772L79.9018 266.184Z" fill="url(#paint37_linear_288_821)"/>
<path d="M148.979 285.725L118.346 246.062V278.695C118.346 279.899 118.367 280.824 118.41 281.468C118.496 282.07 118.689 282.543 118.991 282.887C119.334 283.188 119.829 283.468 120.474 283.726C121.119 283.941 122.043 284.091 123.247 284.177C123.289 284.607 123.289 285.037 123.247 285.467C122.301 285.467 121.248 285.446 120.087 285.402C118.968 285.359 118.023 285.338 117.249 285.338C116.475 285.338 115.508 285.359 114.347 285.402C113.229 285.446 112.218 285.467 111.315 285.467C111.273 285.037 111.273 284.607 111.315 284.177C112.82 284.005 113.896 283.812 114.541 283.597C115.185 283.382 115.572 282.973 115.701 282.371C115.873 281.726 115.959 280.695 115.959 279.276V247.223C115.959 245.546 115.873 244.342 115.701 243.611C115.529 242.838 115.078 242.322 114.347 242.064C113.659 241.806 112.519 241.591 110.929 241.419C110.886 241.032 110.886 240.623 110.929 240.193C111.918 240.193 112.949 240.215 114.025 240.258C115.142 240.301 116.239 240.322 117.314 240.322C117.443 240.322 117.851 240.322 118.539 240.322C119.27 240.322 119.915 240.301 120.474 240.258L149.237 277.599V247.03C149.237 245.869 149.215 244.966 149.173 244.321C149.13 243.633 148.936 243.139 148.592 242.838C147.948 242.107 146.356 241.655 143.819 241.483C143.777 241.053 143.777 240.645 143.819 240.258C144.722 240.258 145.84 240.279 147.173 240.322C148.506 240.322 149.56 240.322 150.334 240.322C151.108 240.322 152.053 240.322 153.171 240.322C154.332 240.279 155.385 240.258 156.331 240.258C156.374 240.645 156.374 241.053 156.331 241.483C154.826 241.655 153.73 241.87 153.042 242.128C152.398 242.343 151.988 242.773 151.817 243.418C151.688 244.02 151.623 245.03 151.623 246.449V285.467C151.322 285.553 150.892 285.617 150.334 285.66C149.818 285.703 149.366 285.725 148.979 285.725Z" fill="url(#paint38_linear_288_821)"/>
<path d="M162.242 285.209C162.2 283.834 162.157 282.329 162.113 280.695C162.113 279.018 162.049 277.277 161.92 275.471C162.136 275.428 162.329 275.407 162.5 275.407C162.716 275.407 162.931 275.407 163.145 275.407C163.619 278.33 164.822 280.566 166.757 282.114C168.735 283.619 170.992 284.371 173.529 284.371C176.195 284.371 178.236 283.597 179.655 282.049C181.074 280.501 181.784 278.502 181.784 276.051C181.784 274.117 181.375 272.483 180.558 271.15C179.742 269.774 178.602 268.549 177.14 267.474C175.721 266.356 174.109 265.238 172.303 264.12C170.626 263.046 168.993 261.928 167.402 260.767C165.854 259.563 164.586 258.187 163.597 256.639C162.608 255.091 162.113 253.221 162.113 251.028C162.113 248.75 162.673 246.75 163.79 245.031C164.951 243.311 166.521 241.978 168.498 241.032C170.52 240.043 172.798 239.549 175.334 239.549C176.108 239.549 176.796 239.592 177.398 239.678C178.043 239.764 178.775 239.85 179.591 239.936C180.408 240.022 181.074 240.086 181.59 240.129C182.106 240.172 182.58 240.194 183.009 240.194C183.096 240.194 183.246 240.194 183.46 240.194C183.676 240.194 183.934 240.172 184.234 240.129L184.75 249.287C184.492 249.33 184.256 249.373 184.041 249.416C183.869 249.416 183.676 249.416 183.46 249.416C183.246 248.04 182.859 246.815 182.299 245.74C181.784 244.665 181.182 243.827 180.494 243.225C179.763 242.58 178.86 242.107 177.785 241.806C176.711 241.505 175.657 241.355 174.625 241.355C172.39 241.355 170.52 242.021 169.014 243.354C167.553 244.644 166.821 246.493 166.821 248.9C166.821 250.663 167.23 252.189 168.047 253.479C168.864 254.726 169.96 255.887 171.336 256.962C172.712 257.994 174.26 259.069 175.979 260.186C177.656 261.261 179.291 262.444 180.881 263.733C182.472 264.98 183.762 266.442 184.75 268.119C185.782 269.753 186.298 271.752 186.298 274.117C186.298 276.224 185.825 278.201 184.879 280.05C183.934 281.856 182.493 283.339 180.558 284.5C178.623 285.618 176.173 286.177 173.206 286.177C172.561 286.177 171.831 286.134 171.013 286.048C170.239 285.962 169.079 285.833 167.531 285.661C166.241 285.489 165.209 285.381 164.435 285.338C163.705 285.252 162.974 285.209 162.242 285.209Z" fill="url(#paint39_linear_288_821)"/>
<path d="M192.96 285.467C192.917 285.037 192.917 284.607 192.96 284.177C194.422 284.048 195.475 283.919 196.12 283.79C196.765 283.661 197.173 283.36 197.346 282.887C197.518 282.371 197.604 281.554 197.604 280.437V245.804C197.604 244.471 197.518 243.525 197.346 242.967C197.173 242.408 196.765 242.042 196.12 241.87C195.475 241.698 194.422 241.569 192.96 241.483C192.917 241.053 192.917 240.623 192.96 240.193C193.605 240.193 194.379 240.215 195.282 240.258C196.185 240.258 197.088 240.279 197.991 240.322C198.894 240.322 199.624 240.322 200.183 240.322C200.743 240.322 201.473 240.322 202.376 240.322C203.279 240.279 204.182 240.258 205.085 240.258C206.031 240.215 206.783 240.193 207.342 240.193C207.385 240.623 207.385 241.053 207.342 241.483C205.88 241.569 204.827 241.698 204.182 241.87C203.537 242.042 203.129 242.365 202.957 242.838C202.828 243.31 202.763 244.106 202.763 245.224V260.895H228.495V245.804C228.495 244.471 228.41 243.525 228.238 242.967C228.109 242.408 227.722 242.042 227.077 241.87C226.475 241.698 225.443 241.569 223.981 241.483C223.938 241.053 223.938 240.623 223.981 240.193C224.583 240.193 225.314 240.215 226.174 240.258C227.077 240.258 227.98 240.279 228.882 240.322C229.829 240.322 230.58 240.322 231.14 240.322C232.043 240.322 233.225 240.301 234.687 240.258C236.149 240.215 237.352 240.193 238.298 240.193C238.342 240.623 238.342 241.053 238.298 241.483C236.836 241.569 235.783 241.698 235.138 241.87C234.493 242.042 234.085 242.365 233.913 242.838C233.741 243.31 233.655 244.106 233.655 245.224V279.856C233.655 281.146 233.719 282.07 233.848 282.629C234.021 283.188 234.429 283.554 235.074 283.726C235.719 283.898 236.794 284.048 238.298 284.177C238.342 284.607 238.342 285.037 238.298 285.467C237.352 285.467 236.127 285.446 234.622 285.402C233.118 285.359 231.935 285.338 231.075 285.338C230.216 285.338 229.055 285.359 227.593 285.402C226.174 285.446 224.992 285.467 224.046 285.467C224.002 285.037 224.002 284.607 224.046 284.177C225.464 284.048 226.475 283.919 227.077 283.79C227.722 283.661 228.109 283.36 228.238 282.887C228.41 282.371 228.495 281.554 228.495 280.437V262.959H202.763V279.856C202.763 281.146 202.828 282.092 202.957 282.694C203.129 283.253 203.537 283.618 204.182 283.79C204.827 283.919 205.88 284.048 207.342 284.177C207.385 284.607 207.385 285.037 207.342 285.467C206.74 285.467 205.967 285.446 205.02 285.402C204.117 285.402 203.215 285.402 202.312 285.402C201.452 285.359 200.72 285.338 200.119 285.338C199.56 285.338 198.829 285.359 197.926 285.402C197.023 285.402 196.12 285.402 195.217 285.402C194.358 285.446 193.605 285.467 192.96 285.467Z" fill="url(#paint40_linear_288_821)"/>
<path d="M238.331 294.238H0V313.399H238.331V294.238Z" fill="#EEC270"/>
<path d="M0 302.811H38.6048C38.9387 302.811 39.2094 303.081 39.2094 303.415V304.221C39.2094 304.555 38.9387 304.826 38.6048 304.826H0V302.811Z" fill="#01503A"/>
<path d="M41.2337 310.176C41.2216 310.055 41.2216 309.934 41.2337 309.813C41.6448 309.777 41.9411 309.74 42.1225 309.704C42.3038 309.656 42.4127 309.565 42.449 309.432C42.4973 309.299 42.5215 309.075 42.5215 308.761V299.02C42.5215 298.658 42.4973 298.398 42.449 298.24C42.4006 298.083 42.2857 297.98 42.1043 297.932C41.935 297.872 41.6448 297.829 41.2337 297.805C41.2216 297.684 41.2216 297.563 41.2337 297.442C41.536 297.442 41.7899 297.448 41.9955 297.461C42.2132 297.461 42.461 297.467 42.7392 297.479C43.0294 297.479 43.4224 297.479 43.9182 297.479C44.4381 297.479 44.9642 297.479 45.4962 297.479C46.0283 297.467 46.5241 297.461 46.9836 297.461C47.4431 297.461 47.824 297.461 48.1263 297.461C48.4286 297.448 48.6039 297.442 48.6523 297.442C48.7249 298.132 48.8277 298.863 48.9607 299.637C48.8277 299.649 48.7067 299.649 48.5979 299.637C48.5012 299.311 48.3984 299.051 48.2895 298.857C48.1807 298.652 48.0658 298.494 47.9449 298.386C47.7877 298.24 47.5882 298.144 47.3463 298.095C47.1166 298.047 46.8264 298.023 46.4757 298.023H43.9726V303.319H45.8771C46.3004 303.319 46.6148 303.295 46.8203 303.247C47.0259 303.198 47.171 303.077 47.2556 302.884C47.3403 302.678 47.4128 302.352 47.4733 301.904C47.6063 301.892 47.7333 301.892 47.8542 301.904C47.8542 301.989 47.8482 302.201 47.8361 302.539C47.824 302.866 47.8179 303.235 47.8179 303.646C47.8179 304.021 47.824 304.377 47.8361 304.716C47.8482 305.042 47.8542 305.26 47.8542 305.369C47.7454 305.381 47.6184 305.381 47.4733 305.369C47.4249 304.885 47.3584 304.547 47.2738 304.353C47.1891 304.148 47.0501 304.021 46.8566 303.972C46.6631 303.924 46.3729 303.9 45.986 303.9H43.9726V309.595H46.385C46.8203 309.595 47.1891 309.571 47.4914 309.523C47.8058 309.462 48.0477 309.347 48.217 309.178C48.3379 309.057 48.4649 308.864 48.5979 308.598C48.743 308.332 48.8881 308.017 49.0332 307.654C49.142 307.642 49.2569 307.642 49.3778 307.654C49.2811 308.138 49.1965 308.604 49.1239 309.051C49.0634 309.498 49.0151 309.867 48.9788 310.157C48.5798 310.157 48.1202 310.157 47.6003 310.157C47.0803 310.157 46.5543 310.157 46.0222 310.157C45.4902 310.145 45.0065 310.139 44.5712 310.139C44.1358 310.139 43.8033 310.139 43.5735 310.139C43.1624 310.139 42.8238 310.145 42.5578 310.157C42.3038 310.157 42.0801 310.157 41.8867 310.157C41.6932 310.17 41.4755 310.176 41.2337 310.176Z" fill="#01503A"/>
<path d="M52.2688 310.176C52.2567 310.055 52.2567 309.934 52.2688 309.813C52.68 309.777 52.9762 309.74 53.1576 309.704C53.339 309.656 53.4478 309.565 53.4841 309.432C53.5325 309.299 53.5567 309.075 53.5567 308.761V299.02C53.5567 298.658 53.5325 298.398 53.4841 298.24C53.4357 298.083 53.3209 297.98 53.1395 297.932C52.9702 297.872 52.68 297.829 52.2688 297.805C52.2567 297.684 52.2567 297.563 52.2688 297.442C52.547 297.442 52.8916 297.448 53.3027 297.461C53.7139 297.473 54.0404 297.479 54.2822 297.479C54.4394 297.479 54.645 297.479 54.8989 297.479C55.1529 297.467 55.4068 297.461 55.6607 297.461C55.9268 297.448 56.1444 297.442 56.3137 297.442C56.3258 297.563 56.3258 297.684 56.3137 297.805C55.8905 297.841 55.5882 297.878 55.4068 297.914C55.2254 297.95 55.1105 298.035 55.0622 298.168C55.0259 298.301 55.0077 298.531 55.0077 298.857V308.525C55.0077 308.827 55.0077 309.069 55.0077 309.251C55.0077 309.42 55.0138 309.535 55.0259 309.595H57.6741C58.0973 309.595 58.442 309.565 58.708 309.504C58.974 309.444 59.1856 309.323 59.3428 309.142C59.4759 308.997 59.6149 308.785 59.76 308.507C59.9172 308.217 60.0563 307.866 60.1772 307.455C60.286 307.443 60.3949 307.443 60.5037 307.455C60.407 307.999 60.3163 308.513 60.2316 308.997C60.1591 309.48 60.0986 309.867 60.0502 310.157C59.4819 310.157 58.8591 310.157 58.182 310.157C57.5169 310.145 56.8458 310.139 56.1686 310.139C55.5035 310.139 54.8868 310.139 54.3185 310.139C54.1492 310.139 53.9376 310.145 53.6836 310.157C53.4297 310.157 53.1758 310.157 52.9218 310.157C52.6679 310.17 52.4502 310.176 52.2688 310.176Z" fill="#01503A"/>
<path d="M62.4895 310.176C62.4774 310.055 62.4774 309.934 62.4895 309.813C62.9007 309.777 63.1969 309.74 63.3783 309.704C63.5597 309.656 63.6685 309.565 63.7048 309.432C63.7532 309.299 63.7774 309.075 63.7774 308.761V299.02C63.7774 298.658 63.7532 298.398 63.7048 298.24C63.6564 298.083 63.5416 297.98 63.3602 297.932C63.1909 297.872 62.9007 297.829 62.4895 297.805C62.4774 297.684 62.4774 297.563 62.4895 297.442C62.7918 297.442 63.0458 297.448 63.2514 297.461C63.469 297.461 63.7169 297.467 63.995 297.479C64.2852 297.479 64.6783 297.479 65.174 297.479C65.694 297.479 66.22 297.479 66.7521 297.479C67.2841 297.467 67.7799 297.461 68.2394 297.461C68.6989 297.461 69.0798 297.461 69.3822 297.461C69.6845 297.448 69.8598 297.442 69.9082 297.442C69.9807 298.132 70.0835 298.863 70.2165 299.637C70.0835 299.649 69.9626 299.649 69.8538 299.637C69.757 299.311 69.6542 299.051 69.5454 298.857C69.4366 298.652 69.3217 298.494 69.2008 298.386C69.0436 298.24 68.844 298.144 68.6022 298.095C68.3724 298.047 68.0822 298.023 67.7316 298.023H65.2284V303.319H67.133C67.5562 303.319 67.8706 303.295 68.0762 303.247C68.2818 303.198 68.4269 303.077 68.5115 302.884C68.5962 302.678 68.6687 302.352 68.7292 301.904C68.8622 301.892 68.9892 301.892 69.1101 301.904C69.1101 301.989 69.104 302.201 69.0919 302.539C69.0798 302.866 69.0738 303.235 69.0738 303.646C69.0738 304.021 69.0798 304.377 69.0919 304.716C69.104 305.042 69.1101 305.26 69.1101 305.369C69.0013 305.381 68.8743 305.381 68.7292 305.369C68.6808 304.885 68.6143 304.547 68.5296 304.353C68.445 304.148 68.3059 304.021 68.1125 303.972C67.919 303.924 67.6288 303.9 67.2418 303.9H65.2284V309.595H67.6409C68.0762 309.595 68.445 309.571 68.7473 309.523C69.0617 309.462 69.3036 309.347 69.4729 309.178C69.5938 309.057 69.7207 308.864 69.8538 308.598C69.9989 308.332 70.144 308.017 70.2891 307.654C70.3979 307.642 70.5128 307.642 70.6337 307.654C70.537 308.138 70.4523 308.604 70.3798 309.051C70.3193 309.498 70.2709 309.867 70.2347 310.157C69.8356 310.157 69.3761 310.157 68.8561 310.157C68.3362 310.157 67.8102 310.157 67.2781 310.157C66.746 310.145 66.2623 310.139 65.827 310.139C65.3917 310.139 65.0592 310.139 64.8294 310.139C64.4183 310.139 64.0797 310.145 63.8136 310.157C63.5597 310.157 63.336 310.157 63.1425 310.157C62.949 310.17 62.7314 310.176 62.4895 310.176Z" fill="#01503A"/>
<path d="M84.2448 297.442C84.2569 297.563 84.2569 297.684 84.2448 297.805C83.8094 297.829 83.483 297.872 83.2653 297.932C83.0597 297.993 82.8965 298.126 82.7756 298.331C82.6546 298.525 82.5095 298.845 82.3402 299.293L78.2591 310.139C78.1744 310.176 78.0596 310.2 77.9144 310.212C77.7814 310.236 77.6666 310.248 77.5698 310.248L73.4524 299.184C73.2952 298.76 73.1622 298.458 73.0533 298.277C72.9445 298.095 72.7873 297.98 72.5817 297.932C72.3883 297.872 72.0678 297.829 71.6204 297.805C71.6083 297.684 71.6083 297.563 71.6204 297.442C71.9348 297.442 72.3036 297.448 72.7268 297.461C73.1501 297.473 73.5249 297.479 73.8514 297.479C74.19 297.479 74.5226 297.473 74.849 297.461C75.1876 297.448 75.5262 297.442 75.8648 297.442C75.8769 297.563 75.8769 297.684 75.8648 297.805C75.3811 297.841 75.0667 297.884 74.9216 297.932C74.7765 297.968 74.7039 298.071 74.7039 298.24C74.7039 298.301 74.716 298.38 74.7402 298.476C74.7644 298.561 74.8007 298.67 74.849 298.803L78.3316 308.325L81.7054 299.002C81.8263 298.676 81.8868 298.44 81.8868 298.295C81.8868 298.101 81.79 297.98 81.5966 297.932C81.4152 297.884 81.0887 297.841 80.6171 297.805C80.605 297.684 80.605 297.563 80.6171 297.442C80.9194 297.442 81.2277 297.448 81.5421 297.461C81.8686 297.473 82.183 297.479 82.4853 297.479C82.7272 297.479 83.0114 297.473 83.3379 297.461C83.6764 297.448 83.9787 297.442 84.2448 297.442Z" fill="#01503A"/>
<path d="M82.4251 310.176C82.413 310.055 82.413 309.934 82.4251 309.813C82.8241 309.777 83.1204 309.735 83.3139 309.686C83.5194 309.626 83.6827 309.499 83.8036 309.305C83.9245 309.1 84.0636 308.773 84.2208 308.326L88.2475 297.479C88.3443 297.443 88.4592 297.418 88.5922 297.406C88.7373 297.382 88.8521 297.37 88.9368 297.37L92.9998 308.435C93.157 308.858 93.284 309.16 93.3807 309.342C93.4896 309.523 93.6407 309.638 93.8342 309.686C94.0277 309.735 94.33 309.777 94.7411 309.813C94.7532 309.934 94.7532 310.055 94.7411 310.176C94.4267 310.176 94.07 310.17 93.6709 310.158C93.284 310.146 92.9273 310.14 92.6008 310.14C92.2622 310.14 91.9417 310.146 91.6394 310.158C91.3492 310.17 91.0348 310.176 90.6962 310.176C90.6841 310.055 90.6841 309.934 90.6962 309.813C91.1195 309.777 91.3976 309.741 91.5306 309.704C91.6757 309.656 91.7483 309.547 91.7483 309.378C91.7483 309.317 91.7362 309.245 91.712 309.16C91.6878 309.063 91.6515 308.949 91.6032 308.815L90.3516 305.315H86.0346L84.8556 308.616C84.7347 308.942 84.6743 309.178 84.6743 309.323C84.6743 309.517 84.7649 309.638 84.9463 309.686C85.1277 309.735 85.424 309.777 85.8351 309.813C85.8472 309.934 85.8472 310.055 85.8351 310.176C85.5328 310.176 85.2365 310.17 84.9463 310.158C84.6682 310.146 84.378 310.14 84.0757 310.14C83.8338 310.14 83.5618 310.146 83.2595 310.158C82.9692 310.17 82.6911 310.176 82.4251 310.176ZM86.2342 304.752H90.1339L88.175 299.293L86.2342 304.752Z" fill="#01503A"/>
<path d="M97.3972 310.176C97.3851 310.055 97.3851 309.934 97.3972 309.813C97.8325 309.777 98.1409 309.741 98.3223 309.705C98.5157 309.668 98.6306 309.584 98.6669 309.451C98.7153 309.306 98.7394 309.076 98.7394 308.761V298.005H96.4359C95.9522 298.005 95.5894 298.06 95.3475 298.168C95.1057 298.277 94.9183 298.471 94.7852 298.749C94.6522 299.015 94.5132 299.408 94.3681 299.928C94.2592 299.94 94.1444 299.94 94.0234 299.928C94.0839 299.505 94.1383 299.075 94.1867 298.64C94.235 298.193 94.2774 297.788 94.3137 297.425C94.882 297.449 95.5652 297.467 96.3633 297.479C97.1614 297.479 98.2013 297.479 99.4831 297.479C100.789 297.479 101.835 297.479 102.621 297.479C103.407 297.467 104.084 297.449 104.653 297.425C104.677 297.775 104.713 298.175 104.762 298.622C104.81 299.069 104.858 299.505 104.907 299.928C104.774 299.94 104.653 299.94 104.544 299.928C104.387 299.408 104.242 299.009 104.109 298.731C103.976 298.453 103.788 298.265 103.546 298.168C103.317 298.06 102.96 298.005 102.476 298.005H100.191V308.598C100.191 308.961 100.209 309.227 100.245 309.396C100.293 309.553 100.408 309.656 100.59 309.705C100.783 309.741 101.098 309.777 101.533 309.813C101.545 309.934 101.545 310.055 101.533 310.176C101.352 310.176 101.128 310.17 100.862 310.158C100.608 310.158 100.354 310.158 100.1 310.158C99.8459 310.146 99.6343 310.14 99.465 310.14C99.211 310.14 98.8725 310.146 98.4492 310.158C98.026 310.17 97.6753 310.176 97.3972 310.176Z" fill="#01503A"/>
<path d="M109.706 298.857V308.598C109.706 308.96 109.724 309.226 109.761 309.396C109.797 309.553 109.906 309.656 110.087 309.704C110.268 309.74 110.577 309.777 111.012 309.813C111.024 309.934 111.024 310.055 111.012 310.176C110.746 310.176 110.401 310.17 109.978 310.157C109.555 310.145 109.222 310.139 108.981 310.139C108.715 310.139 108.376 310.145 107.965 310.157C107.554 310.17 107.209 310.176 106.931 310.176C106.919 310.055 106.919 309.934 106.931 309.813C107.354 309.777 107.656 309.74 107.838 309.704C108.031 309.668 108.146 309.583 108.183 309.45C108.231 309.305 108.255 309.075 108.255 308.761V299.02C108.255 298.658 108.231 298.398 108.183 298.24C108.134 298.083 108.019 297.98 107.838 297.932C107.656 297.872 107.354 297.829 106.931 297.805C106.919 297.684 106.919 297.563 106.931 297.442C107.112 297.442 107.33 297.448 107.584 297.461C107.85 297.461 108.11 297.467 108.364 297.479C108.618 297.479 108.829 297.479 108.999 297.479C109.168 297.479 109.374 297.479 109.615 297.479C109.869 297.467 110.123 297.461 110.377 297.461C110.631 297.448 110.843 297.442 111.012 297.442C111.024 297.563 111.024 297.684 111.012 297.805C110.589 297.841 110.287 297.878 110.105 297.914C109.924 297.95 109.809 298.035 109.761 298.168C109.724 298.301 109.706 298.531 109.706 298.857Z" fill="#01503A"/>
<path d="M124.801 310.248L116.185 299.093V308.271C116.185 308.61 116.191 308.87 116.203 309.051C116.227 309.22 116.282 309.353 116.366 309.45C116.463 309.535 116.602 309.613 116.783 309.686C116.965 309.746 117.225 309.789 117.563 309.813C117.575 309.934 117.575 310.055 117.563 310.176C117.297 310.176 117.001 310.17 116.675 310.157C116.36 310.145 116.094 310.139 115.876 310.139C115.659 310.139 115.387 310.145 115.06 310.157C114.746 310.17 114.462 310.176 114.208 310.176C114.196 310.055 114.196 309.934 114.208 309.813C114.631 309.764 114.933 309.71 115.115 309.65C115.296 309.589 115.405 309.474 115.441 309.305C115.49 309.124 115.514 308.833 115.514 308.434V299.419C115.514 298.948 115.49 298.609 115.441 298.404C115.393 298.186 115.266 298.041 115.06 297.968C114.867 297.896 114.546 297.835 114.099 297.787C114.087 297.678 114.087 297.563 114.099 297.442C114.377 297.442 114.667 297.448 114.97 297.461C115.284 297.473 115.592 297.479 115.895 297.479C115.931 297.479 116.046 297.479 116.239 297.479C116.445 297.479 116.626 297.473 116.783 297.461L124.873 307.963V299.365C124.873 299.039 124.867 298.785 124.855 298.603C124.843 298.41 124.789 298.271 124.692 298.186C124.51 297.98 124.063 297.854 123.35 297.805C123.337 297.684 123.337 297.569 123.35 297.461C123.603 297.461 123.918 297.467 124.293 297.479C124.668 297.479 124.964 297.479 125.182 297.479C125.399 297.479 125.665 297.479 125.98 297.479C126.306 297.467 126.602 297.461 126.868 297.461C126.88 297.569 126.88 297.684 126.868 297.805C126.445 297.854 126.137 297.914 125.943 297.987C125.762 298.047 125.647 298.168 125.599 298.349C125.562 298.519 125.544 298.803 125.544 299.202V310.176C125.46 310.2 125.339 310.218 125.182 310.23C125.036 310.242 124.909 310.248 124.801 310.248Z" fill="#01503A"/>
<path d="M136.186 297.788C135.158 297.788 134.299 297.945 133.61 298.259C132.921 298.574 132.37 299.009 131.959 299.565C131.548 300.109 131.252 300.738 131.071 301.452C130.889 302.153 130.798 302.891 130.798 303.665C130.798 304.886 130.998 305.962 131.397 306.893C131.808 307.812 132.425 308.532 133.247 309.052C134.082 309.56 135.121 309.814 136.367 309.814C136.766 309.814 137.207 309.789 137.691 309.741C138.175 309.681 138.64 309.596 139.088 309.487V305.769C139.088 305.406 139.064 305.146 139.015 304.989C138.967 304.832 138.84 304.729 138.634 304.68C138.429 304.632 138.096 304.59 137.637 304.553C137.625 304.432 137.625 304.318 137.637 304.209C137.818 304.209 138.042 304.215 138.308 304.227C138.574 304.227 138.84 304.233 139.106 304.245C139.372 304.245 139.596 304.245 139.777 304.245C139.958 304.245 140.17 304.245 140.412 304.245C140.666 304.233 140.902 304.227 141.119 304.227C141.349 304.215 141.518 304.209 141.627 304.209C141.639 304.318 141.639 304.432 141.627 304.553C141.264 304.59 141.004 304.632 140.847 304.68C140.69 304.729 140.593 304.819 140.557 304.952C140.521 305.085 140.503 305.309 140.503 305.624V308.072C140.503 308.483 140.509 308.84 140.521 309.142C140.545 309.433 140.563 309.638 140.575 309.759C139.983 309.953 139.305 310.104 138.544 310.213C137.782 310.321 137.062 310.376 136.385 310.376C134.922 310.376 133.646 310.128 132.558 309.632C131.482 309.124 130.647 308.393 130.055 307.437C129.462 306.47 129.166 305.297 129.166 303.919C129.166 302.576 129.444 301.409 130 300.418C130.569 299.414 131.379 298.64 132.431 298.096C133.483 297.54 134.741 297.262 136.204 297.262C136.615 297.262 137.032 297.286 137.455 297.334C137.891 297.371 138.386 297.437 138.943 297.534C139.148 297.57 139.348 297.606 139.541 297.643C139.735 297.679 139.94 297.697 140.158 297.697C140.194 297.697 140.23 297.697 140.267 297.697C140.315 297.697 140.376 297.691 140.448 297.679C140.46 298.066 140.478 298.537 140.503 299.094C140.539 299.65 140.569 300.152 140.593 300.599C140.521 300.611 140.46 300.623 140.412 300.635C140.364 300.635 140.309 300.635 140.249 300.635C140.116 299.741 139.717 299.045 139.051 298.55C138.399 298.042 137.443 297.788 136.186 297.788Z" fill="#01503A"/>
<path d="M149.728 310.176C149.716 310.055 149.716 309.934 149.728 309.813C150.139 309.777 150.435 309.74 150.617 309.704C150.798 309.656 150.907 309.565 150.943 309.432C150.991 309.299 151.016 309.075 151.016 308.761V299.02C151.016 298.658 150.991 298.398 150.943 298.24C150.895 298.083 150.78 297.98 150.598 297.932C150.429 297.872 150.139 297.829 149.728 297.805C149.716 297.684 149.716 297.563 149.728 297.442C150.006 297.442 150.351 297.448 150.762 297.461C151.173 297.473 151.499 297.479 151.741 297.479C151.898 297.479 152.104 297.479 152.358 297.479C152.612 297.467 152.866 297.461 153.12 297.461C153.386 297.448 153.603 297.442 153.773 297.442C153.785 297.563 153.785 297.684 153.773 297.805C153.349 297.841 153.047 297.878 152.866 297.914C152.684 297.95 152.57 298.035 152.521 298.168C152.485 298.301 152.467 298.531 152.467 298.857V308.525C152.467 308.827 152.467 309.069 152.467 309.251C152.467 309.42 152.473 309.535 152.485 309.595H155.133C155.556 309.595 155.901 309.565 156.167 309.504C156.433 309.444 156.645 309.323 156.802 309.142C156.935 308.997 157.074 308.785 157.219 308.507C157.376 308.217 157.515 307.866 157.636 307.455C157.745 307.443 157.854 307.443 157.963 307.455C157.866 307.999 157.775 308.513 157.691 308.997C157.618 309.48 157.558 309.867 157.509 310.157C156.941 310.157 156.318 310.157 155.641 310.157C154.976 310.145 154.305 310.139 153.628 310.139C152.963 310.139 152.346 310.139 151.777 310.139C151.608 310.139 151.397 310.145 151.143 310.157C150.889 310.157 150.635 310.157 150.381 310.157C150.127 310.17 149.909 310.176 149.728 310.176Z" fill="#01503A"/>
<path d="M162.689 298.857V308.598C162.689 308.96 162.707 309.226 162.743 309.396C162.779 309.553 162.888 309.656 163.069 309.704C163.251 309.74 163.559 309.777 163.995 309.813C164.007 309.934 164.007 310.055 163.995 310.176C163.728 310.176 163.384 310.17 162.961 310.157C162.537 310.145 162.205 310.139 161.963 310.139C161.697 310.139 161.358 310.145 160.947 310.157C160.536 310.17 160.191 310.176 159.913 310.176C159.901 310.055 159.901 309.934 159.913 309.813C160.337 309.777 160.639 309.74 160.82 309.704C161.014 309.668 161.129 309.583 161.165 309.45C161.213 309.305 161.237 309.075 161.237 308.761V299.02C161.237 298.658 161.213 298.398 161.165 298.24C161.117 298.083 161.002 297.98 160.82 297.932C160.639 297.872 160.337 297.829 159.913 297.805C159.901 297.684 159.901 297.563 159.913 297.442C160.095 297.442 160.312 297.448 160.566 297.461C160.832 297.461 161.092 297.467 161.346 297.479C161.6 297.479 161.812 297.479 161.981 297.479C162.15 297.479 162.356 297.479 162.598 297.479C162.852 297.467 163.106 297.461 163.36 297.461C163.614 297.448 163.825 297.442 163.995 297.442C164.007 297.563 164.007 297.684 163.995 297.805C163.571 297.841 163.269 297.878 163.088 297.914C162.906 297.95 162.791 298.035 162.743 298.168C162.707 298.301 162.689 298.531 162.689 298.857Z" fill="#01503A"/>
<path d="M178.108 297.442C178.12 297.563 178.12 297.684 178.108 297.805C177.673 297.829 177.346 297.872 177.129 297.932C176.923 297.993 176.76 298.126 176.639 298.331C176.518 298.525 176.373 298.845 176.204 299.293L172.122 310.139C172.038 310.176 171.923 310.2 171.778 310.212C171.645 310.236 171.53 310.248 171.433 310.248L167.316 299.184C167.158 298.76 167.025 298.458 166.917 298.277C166.808 298.095 166.651 297.98 166.445 297.932C166.252 297.872 165.931 297.829 165.484 297.805C165.472 297.684 165.472 297.563 165.484 297.442C165.798 297.442 166.167 297.448 166.59 297.461C167.013 297.473 167.388 297.479 167.715 297.479C168.053 297.479 168.386 297.473 168.712 297.461C169.051 297.448 169.39 297.442 169.728 297.442C169.74 297.563 169.74 297.684 169.728 297.805C169.244 297.841 168.93 297.884 168.785 297.932C168.64 297.968 168.567 298.071 168.567 298.24C168.567 298.301 168.579 298.38 168.603 298.476C168.628 298.561 168.664 298.67 168.712 298.803L172.195 308.325L175.569 299.002C175.69 298.676 175.75 298.44 175.75 298.295C175.75 298.101 175.653 297.98 175.46 297.932C175.278 297.884 174.952 297.841 174.48 297.805C174.468 297.684 174.468 297.563 174.48 297.442C174.783 297.442 175.091 297.448 175.405 297.461C175.732 297.473 176.046 297.479 176.349 297.479C176.59 297.479 176.875 297.473 177.201 297.461C177.54 297.448 177.842 297.442 178.108 297.442Z" fill="#01503A"/>
<path d="M179.47 310.176C179.458 310.055 179.458 309.934 179.47 309.813C179.881 309.777 180.177 309.74 180.359 309.704C180.54 309.656 180.649 309.565 180.685 309.432C180.734 309.299 180.758 309.075 180.758 308.761V299.02C180.758 298.658 180.734 298.398 180.685 298.24C180.637 298.083 180.522 297.98 180.341 297.932C180.171 297.872 179.881 297.829 179.47 297.805C179.458 297.684 179.458 297.563 179.47 297.442C179.772 297.442 180.026 297.448 180.232 297.461C180.449 297.461 180.697 297.467 180.976 297.479C181.266 297.479 181.659 297.479 182.155 297.479C182.674 297.479 183.2 297.479 183.733 297.479C184.265 297.467 184.76 297.461 185.22 297.461C185.679 297.461 186.06 297.461 186.363 297.461C186.665 297.448 186.84 297.442 186.889 297.442C186.961 298.132 187.064 298.863 187.197 299.637C187.064 299.649 186.943 299.649 186.834 299.637C186.737 299.311 186.635 299.051 186.526 298.857C186.417 298.652 186.302 298.494 186.181 298.386C186.024 298.24 185.825 298.144 185.583 298.095C185.353 298.047 185.063 298.023 184.712 298.023H182.209V303.319H184.113C184.537 303.319 184.851 303.295 185.057 303.247C185.262 303.198 185.407 303.077 185.492 302.884C185.577 302.678 185.649 302.352 185.71 301.904C185.843 301.892 185.97 301.892 186.091 301.904C186.091 301.989 186.085 302.201 186.072 302.539C186.06 302.866 186.054 303.235 186.054 303.646C186.054 304.021 186.06 304.377 186.072 304.716C186.085 305.042 186.091 305.26 186.091 305.369C185.982 305.381 185.855 305.381 185.71 305.369C185.661 304.885 185.595 304.547 185.51 304.353C185.425 304.148 185.286 304.021 185.093 303.972C184.899 303.924 184.609 303.9 184.222 303.9H182.209V309.595H184.621C185.057 309.595 185.425 309.571 185.728 309.523C186.042 309.462 186.284 309.347 186.453 309.178C186.574 309.057 186.701 308.864 186.834 308.598C186.979 308.332 187.124 308.017 187.27 307.654C187.378 307.642 187.493 307.642 187.614 307.654C187.517 308.138 187.433 308.604 187.36 309.051C187.3 309.498 187.251 309.867 187.215 310.157C186.816 310.157 186.357 310.157 185.837 310.157C185.317 310.157 184.791 310.157 184.259 310.157C183.726 310.145 183.243 310.139 182.807 310.139C182.372 310.139 182.04 310.139 181.81 310.139C181.399 310.139 181.06 310.145 180.794 310.157C180.54 310.157 180.316 310.157 180.123 310.157C179.93 310.17 179.712 310.176 179.47 310.176Z" fill="#01503A"/>
<path d="M190.341 310.104C190.329 309.717 190.317 309.294 190.304 308.834C190.304 308.362 190.286 307.873 190.25 307.365C190.31 307.353 190.365 307.347 190.413 307.347C190.474 307.347 190.534 307.347 190.595 307.347C190.728 308.169 191.066 308.798 191.61 309.233C192.167 309.656 192.801 309.868 193.515 309.868C194.265 309.868 194.839 309.65 195.238 309.215C195.637 308.78 195.837 308.217 195.837 307.528C195.837 306.984 195.722 306.524 195.492 306.15C195.262 305.763 194.942 305.418 194.531 305.116C194.132 304.801 193.678 304.487 193.17 304.172C192.699 303.87 192.239 303.556 191.792 303.229C191.356 302.891 191 302.504 190.722 302.068C190.443 301.633 190.304 301.107 190.304 300.49C190.304 299.849 190.462 299.287 190.776 298.803C191.103 298.32 191.544 297.945 192.1 297.679C192.668 297.401 193.309 297.262 194.023 297.262C194.24 297.262 194.434 297.274 194.603 297.298C194.785 297.322 194.99 297.346 195.22 297.371C195.45 297.395 195.637 297.413 195.782 297.425C195.927 297.437 196.06 297.443 196.181 297.443C196.205 297.443 196.248 297.443 196.308 297.443C196.369 297.443 196.441 297.437 196.526 297.425L196.671 300.001C196.598 300.013 196.532 300.025 196.471 300.037C196.423 300.037 196.369 300.037 196.308 300.037C196.248 299.65 196.139 299.305 195.982 299.003C195.837 298.701 195.667 298.465 195.474 298.296C195.268 298.114 195.014 297.981 194.712 297.897C194.41 297.812 194.113 297.77 193.823 297.77C193.194 297.77 192.668 297.957 192.245 298.332C191.834 298.695 191.629 299.215 191.629 299.892C191.629 300.388 191.743 300.817 191.973 301.18C192.203 301.53 192.511 301.857 192.898 302.159C193.285 302.449 193.72 302.752 194.204 303.066C194.676 303.368 195.135 303.701 195.583 304.064C196.03 304.414 196.393 304.825 196.671 305.297C196.961 305.757 197.106 306.319 197.106 306.984C197.106 307.576 196.973 308.133 196.707 308.653C196.441 309.161 196.036 309.578 195.492 309.904C194.948 310.219 194.259 310.376 193.424 310.376C193.243 310.376 193.037 310.364 192.808 310.34C192.59 310.315 192.263 310.279 191.828 310.231C191.465 310.182 191.175 310.152 190.957 310.14C190.752 310.116 190.546 310.104 190.341 310.104Z" fill="#01503A"/>
<path d="M199.123 303.415C199.123 303.081 199.394 302.811 199.728 302.811H238.332V304.826H199.728C199.394 304.826 199.123 304.555 199.123 304.221V303.415Z" fill="#01503A"/>
</g>
</g>
<defs>
<linearGradient id="paint0_linear_288_821" x1="119.252" y1="16.75" x2="-61.1751" y2="134.3" gradientUnits="userSpaceOnUse">
<stop stop-color="#FFD87B"/>
<stop offset="1" stop-color="#CD955A"/>
</linearGradient>
<linearGradient id="paint1_linear_288_821" x1="177.543" y1="30.8432" x2="167.158" y2="31.1454" gradientUnits="userSpaceOnUse">
<stop stop-color="#FFD87B"/>
<stop offset="1" stop-color="#CD955A"/>
</linearGradient>
<linearGradient id="paint2_linear_288_821" x1="185.325" y1="35.8767" x2="175.402" y2="36.1582" gradientUnits="userSpaceOnUse">
<stop stop-color="#FFD87B"/>
<stop offset="1" stop-color="#CD955A"/>
</linearGradient>
<linearGradient id="paint3_linear_288_821" x1="169.684" y1="71.3446" x2="160.592" y2="71.6366" gradientUnits="userSpaceOnUse">
<stop stop-color="#FFD87B"/>
<stop offset="1" stop-color="#CD955A"/>
</linearGradient>
<linearGradient id="paint4_linear_288_821" x1="162.077" y1="75.4831" x2="153.081" y2="75.7728" gradientUnits="userSpaceOnUse">
<stop stop-color="#FFD87B"/>
<stop offset="1" stop-color="#CD955A"/>
</linearGradient>
<linearGradient id="paint5_linear_288_821" x1="154.33" y1="79.4106" x2="145.488" y2="79.7016" gradientUnits="userSpaceOnUse">
<stop stop-color="#FFD87B"/>
<stop offset="1" stop-color="#CD955A"/>
</linearGradient>
<linearGradient id="paint6_linear_288_821" x1="146.664" y1="83.8794" x2="137.633" y2="84.1887" gradientUnits="userSpaceOnUse">
<stop stop-color="#FFD87B"/>
<stop offset="1" stop-color="#CD955A"/>
</linearGradient>
<linearGradient id="paint7_linear_288_821" x1="145.437" y1="214.686" x2="144.482" y2="214.74" gradientUnits="userSpaceOnUse">
<stop stop-color="#FFD87B"/>
<stop offset="1" stop-color="#CD955A"/>
</linearGradient>
<linearGradient id="paint8_linear_288_821" x1="139.161" y1="88.4207" x2="130.158" y2="88.7451" gradientUnits="userSpaceOnUse">
<stop stop-color="#FFD87B"/>
<stop offset="1" stop-color="#CD955A"/>
</linearGradient>
<linearGradient id="paint9_linear_288_821" x1="131.479" y1="92.5912" x2="122.948" y2="92.8874" gradientUnits="userSpaceOnUse">
<stop stop-color="#FFD87B"/>
<stop offset="1" stop-color="#CD955A"/>
</linearGradient>
<linearGradient id="paint10_linear_288_821" x1="123.922" y1="96.1734" x2="115.296" y2="96.4992" gradientUnits="userSpaceOnUse">
<stop stop-color="#FFD87B"/>
<stop offset="1" stop-color="#CD955A"/>
</linearGradient>
<linearGradient id="paint11_linear_288_821" x1="154.161" y1="5.48465" x2="143.333" y2="6.48621" gradientUnits="userSpaceOnUse">
<stop stop-color="#FFD87B"/>
<stop offset="1" stop-color="#CD955A"/>
</linearGradient>
<linearGradient id="paint12_linear_288_821" x1="192.638" y1="105.974" x2="184.112" y2="106.311" gradientUnits="userSpaceOnUse">
<stop stop-color="#FFD87B"/>
<stop offset="1" stop-color="#CD955A"/>
</linearGradient>
<linearGradient id="paint13_linear_288_821" x1="192.948" y1="31.3778" x2="182.962" y2="32.1994" gradientUnits="userSpaceOnUse">
<stop stop-color="#FFD87B"/>
<stop offset="1" stop-color="#CD955A"/>
</linearGradient>
<linearGradient id="paint14_linear_288_821" x1="208.179" y1="40.9114" x2="198.106" y2="41.7544" gradientUnits="userSpaceOnUse">
<stop stop-color="#FFD87B"/>
<stop offset="1" stop-color="#CD955A"/>
</linearGradient>
<linearGradient id="paint15_linear_288_821" x1="200.341" y1="36.0466" x2="190.726" y2="36.8116" gradientUnits="userSpaceOnUse">
<stop stop-color="#FFD87B"/>
<stop offset="1" stop-color="#CD955A"/>
</linearGradient>
<linearGradient id="paint16_linear_288_821" x1="199.991" y1="110.374" x2="192.536" y2="110.642" gradientUnits="userSpaceOnUse">
<stop stop-color="#FFD87B"/>
<stop offset="1" stop-color="#CD955A"/>
</linearGradient>
<linearGradient id="paint17_linear_288_821" x1="162.064" y1="9.86734" x2="152.054" y2="10.8706" gradientUnits="userSpaceOnUse">
<stop stop-color="#FFD87B"/>
<stop offset="1" stop-color="#CD955A"/>
</linearGradient>
<linearGradient id="paint18_linear_288_821" x1="207.71" y1="114.708" x2="200.557" y2="114.963" gradientUnits="userSpaceOnUse">
<stop stop-color="#FFD87B"/>
<stop offset="1" stop-color="#CD955A"/>
</linearGradient>
<linearGradient id="paint19_linear_288_821" x1="215.557" y1="119.287" x2="207.979" y2="119.585" gradientUnits="userSpaceOnUse">
<stop stop-color="#FFD87B"/>
<stop offset="1" stop-color="#CD955A"/>
</linearGradient>
<linearGradient id="paint20_linear_288_821" x1="222.83" y1="123.001" x2="214.956" y2="123.336" gradientUnits="userSpaceOnUse">
<stop stop-color="#FFD87B"/>
<stop offset="1" stop-color="#CD955A"/>
</linearGradient>
<linearGradient id="paint21_linear_288_821" x1="230.375" y1="127.735" x2="222.706" y2="128.059" gradientUnits="userSpaceOnUse">
<stop stop-color="#FFD87B"/>
<stop offset="1" stop-color="#CD955A"/>
</linearGradient>
<linearGradient id="paint22_linear_288_821" x1="169.728" y1="14.1968" x2="159.794" y2="15.3858" gradientUnits="userSpaceOnUse">
<stop stop-color="#FFD87B"/>
<stop offset="1" stop-color="#CD955A"/>
</linearGradient>
<linearGradient id="paint23_linear_288_821" x1="237.978" y1="132.093" x2="230.216" y2="132.44" gradientUnits="userSpaceOnUse">
<stop stop-color="#FFD87B"/>
<stop offset="1" stop-color="#CD955A"/>
</linearGradient>
<linearGradient id="paint24_linear_288_821" x1="237.003" y1="217.669" x2="236.179" y2="217.724" gradientUnits="userSpaceOnUse">
<stop stop-color="#FFD87B"/>
<stop offset="1" stop-color="#CD955A"/>
</linearGradient>
<linearGradient id="paint25_linear_288_821" x1="122.388" y1="214.513" x2="121.445" y2="214.571" gradientUnits="userSpaceOnUse">
<stop stop-color="#FFD87B"/>
<stop offset="1" stop-color="#CD955A"/>
</linearGradient>
<linearGradient id="paint26_linear_288_821" x1="199.035" y1="219.259" x2="198.081" y2="219.353" gradientUnits="userSpaceOnUse">
<stop stop-color="#FFD87B"/>
<stop offset="1" stop-color="#CD955A"/>
</linearGradient>
<linearGradient id="paint27_linear_288_821" x1="176.167" y1="218.035" x2="175.204" y2="218.115" gradientUnits="userSpaceOnUse">
<stop stop-color="#FFD87B"/>
<stop offset="1" stop-color="#CD955A"/>
</linearGradient>
<linearGradient id="paint28_linear_288_821" x1="214.097" y1="219.118" x2="213.39" y2="219.163" gradientUnits="userSpaceOnUse">
<stop stop-color="#FFD87B"/>
<stop offset="1" stop-color="#CD955A"/>
</linearGradient>
<linearGradient id="paint29_linear_288_821" x1="183.706" y1="220.45" x2="183.008" y2="220.519" gradientUnits="userSpaceOnUse">
<stop stop-color="#FFD87B"/>
<stop offset="1" stop-color="#CD955A"/>
</linearGradient>
<linearGradient id="paint30_linear_288_821" x1="206.765" y1="221.085" x2="206.078" y2="221.172" gradientUnits="userSpaceOnUse">
<stop stop-color="#FFD87B"/>
<stop offset="1" stop-color="#CD955A"/>
</linearGradient>
<linearGradient id="paint31_linear_288_821" x1="221.753" y1="219.939" x2="221.094" y2="219.991" gradientUnits="userSpaceOnUse">
<stop stop-color="#FFD87B"/>
<stop offset="1" stop-color="#CD955A"/>
</linearGradient>
<linearGradient id="paint32_linear_288_821" x1="191.198" y1="220.372" x2="190.566" y2="220.431" gradientUnits="userSpaceOnUse">
<stop stop-color="#FFD87B"/>
<stop offset="1" stop-color="#CD955A"/>
</linearGradient>
<linearGradient id="paint33_linear_288_821" x1="168.357" y1="221.213" x2="167.628" y2="221.331" gradientUnits="userSpaceOnUse">
<stop stop-color="#FFD87B"/>
<stop offset="1" stop-color="#CD955A"/>
</linearGradient>
<linearGradient id="paint34_linear_288_821" x1="152.782" y1="220.047" x2="152.142" y2="220.11" gradientUnits="userSpaceOnUse">
<stop stop-color="#FFD87B"/>
<stop offset="1" stop-color="#CD955A"/>
</linearGradient>
<linearGradient id="paint35_linear_288_821" x1="238.823" y1="239.052" x2="218.319" y2="333.706" gradientUnits="userSpaceOnUse">
<stop stop-color="#FFD87B"/>
<stop offset="1" stop-color="#CD955A"/>
</linearGradient>
<linearGradient id="paint36_linear_288_821" x1="238.823" y1="239.052" x2="218.319" y2="333.706" gradientUnits="userSpaceOnUse">
<stop stop-color="#FFD87B"/>
<stop offset="1" stop-color="#CD955A"/>
</linearGradient>
<linearGradient id="paint37_linear_288_821" x1="238.823" y1="239.052" x2="218.318" y2="333.706" gradientUnits="userSpaceOnUse">
<stop stop-color="#FFD87B"/>
<stop offset="1" stop-color="#CD955A"/>
</linearGradient>
<linearGradient id="paint38_linear_288_821" x1="238.823" y1="239.052" x2="218.319" y2="333.706" gradientUnits="userSpaceOnUse">
<stop stop-color="#FFD87B"/>
<stop offset="1" stop-color="#CD955A"/>
</linearGradient>
<linearGradient id="paint39_linear_288_821" x1="238.824" y1="239.052" x2="218.319" y2="333.706" gradientUnits="userSpaceOnUse">
<stop stop-color="#FFD87B"/>
<stop offset="1" stop-color="#CD955A"/>
</linearGradient>
<linearGradient id="paint40_linear_288_821" x1="238.822" y1="239.052" x2="218.318" y2="333.706" gradientUnits="userSpaceOnUse">
<stop stop-color="#FFD87B"/>
<stop offset="1" stop-color="#CD955A"/>
</linearGradient>
<clipPath id="clip0_288_821">
<rect width="238.823" height="314.118" fill="white"/>
</clipPath>
<clipPath id="clip1_288_821">
<rect width="238.823" height="74.5693" fill="white" transform="translate(0 239.549)"/>
</clipPath>
</defs>
</svg>
