<svg width="810" height="284" viewBox="0 0 810 284" fill="none" xmlns="http://www.w3.org/2000/svg">
<g clip-path="url(#clip0_335_3717)">
<rect width="809.999" height="283.327" fill="#01503A"/>
<path d="M148.323 0C149.411 0.0456701 150.352 2.61073 150.792 3.58581C153.446 9.46219 155.913 15.4261 158.47 21.3449L171.828 52.2009L180.234 71.8C181.706 75.2276 183.686 79.3464 184.887 82.7928C181.621 84.9073 178.173 86.7996 174.863 88.8679L152.708 102.784C149.108 104.997 145.774 107.565 142.154 109.644C141.795 119.804 142.029 130.848 141.853 141.113C139.263 135.893 136.498 129.399 134.069 124.002L121.37 96.1977C120.237 98.2905 119.095 101.344 118.08 103.557C115.458 109.269 113.185 115.341 110.664 121.052L87.9307 173.157C85.0149 179.842 82.2653 186.515 79.2365 193.16C84.5055 193.368 90.6916 193.097 96.0595 193.172C110.951 193.38 126.217 192.964 141.081 193.332C141.046 197.436 141.346 203.862 140.914 207.813C136.16 208.191 127.009 207.929 121.939 207.928L92.178 207.889C85.9212 207.862 79.2398 207.71 73.024 207.883C71.6883 209.992 69.6548 215.09 68.5903 217.576C66.1377 223.236 63.7361 228.918 61.3852 234.621C57.3861 243.456 53.2946 252.998 55.6916 262.794C59.0829 276.651 77.1004 277.819 88.6812 277.871C88.7678 279.784 88.7584 281.242 88.6935 283.159C85.0215 283.461 78.4088 283.262 74.4788 283.262L47.7771 283.26H17.4626C12.2294 283.263 5.17651 283.466 0.137758 283.141C-0.0237346 281.068 -0.00395661 279.246 0.00734314 277.176C12.309 274.59 22.9491 271.121 31.27 260.955C36.708 254.312 40.6333 243.203 44.1263 235.104L57.4897 203.928L117.617 64.6439L136.453 21.7272L141.873 9.33977C142.884 7.02755 143.888 4.64564 145.051 2.4031C145.737 1.07819 147.015 0.616311 148.323 0Z" fill="url(#paint0_linear_335_3717)"/>
<path d="M216.965 19.6948C219.323 21.1478 222.076 23.1271 224.399 24.7124C224.527 27.7092 224.331 31.8638 224.309 34.9901C224.273 42.7818 224.192 50.573 224.065 58.3637L223.616 116.682L221.408 273.259C221.251 274.411 221.171 275.029 221.176 276.186L220.981 276.202C220.937 275.85 220.836 275.51 220.753 275.166C218.905 190.019 217.642 104.86 216.965 19.6948Z" fill="url(#paint1_linear_335_3717)"/>
<path d="M227.016 26.3943C229.423 27.9259 231.802 29.5013 234.152 31.1195C233.554 112.934 232.445 194.744 230.825 276.544L230.375 277.836C230.549 270.806 229.913 261.305 229.754 254.131L228.963 208.009L227.764 102.745L227.305 61.5122C227.074 49.808 226.978 38.1009 227.016 26.3943Z" fill="url(#paint2_linear_335_3717)"/>
<path d="M207.846 78.1112C209.835 76.984 212.108 75.3635 214.171 74.5023C214.603 79.833 214.28 89.6304 214.231 95.1758L213.938 131.135L212.478 232.422L212.02 258.188C211.868 264.628 211.565 271.211 211.547 277.634L211.082 278.092C211.146 271.557 210.767 264.538 210.609 257.955L209.953 222.11L207.846 78.1112Z" fill="url(#paint3_linear_335_3717)"/>
<path d="M204.484 79.9047C205.717 81.6025 203.195 193.765 203.239 207.228C203.29 222.604 202.328 246.47 202.023 262.686C201.951 266.501 202.078 277.144 201.543 280.732L201.453 279.027C200.856 273.967 201.205 268.453 201.05 263.345C200.255 237.075 200.001 210.782 199.552 184.508L198.346 83.6892C200.657 82.3807 202.286 81.433 204.484 79.9047Z" fill="url(#paint4_linear_335_3717)"/>
<path d="M188.743 89.0931C190.532 88.0606 193.423 86.4975 195.07 85.4089C194.498 149.801 193.467 214.189 191.978 278.568C191.9 277.528 191.805 277.096 191.575 276.068C191.51 263.714 190.993 251.343 190.797 238.998L189.319 139.133C189.137 125.766 189.049 112.348 188.767 98.9772C188.697 95.7059 188.678 92.364 188.743 89.0931Z" fill="url(#paint5_linear_335_3717)"/>
<path d="M178.963 95.4824C181.455 94.0389 183.149 92.9546 185.467 91.2878C185.213 102.235 185.044 113.183 184.96 124.132L183.988 205.38C183.904 226.519 183.506 247.657 182.795 268.784C182.873 272.813 182.782 276.843 182.521 280.863C182.192 278.18 182.072 275.475 182.162 272.774C182.108 265.405 181.618 257.455 181.43 250.049L180.337 193.146L179.562 130.318C179.414 119.01 179.496 106.673 178.963 95.4824Z" fill="url(#paint6_linear_335_3717)"/>
<path d="M182.162 272.774C182.46 273.718 182.431 274.47 182.473 275.452C182.499 273.392 182.47 270.763 182.795 268.785C182.873 272.813 182.782 276.843 182.521 280.863C182.192 278.18 182.072 275.475 182.162 272.774Z" fill="url(#paint7_linear_335_3717)"/>
<path d="M175.503 97.7263L175.857 97.8313C176.134 98.5879 176.02 102.251 175.996 103.363C174.884 156.19 174.667 209.046 173.212 261.86C173.156 263.88 173.023 276.537 172.582 277.429L172.506 275.531C171.989 267.734 171.941 258.404 171.752 250.549C171.307 236.31 170.987 222.066 170.794 207.821L169.555 101.253C171.557 100.111 173.54 98.9354 175.503 97.7263Z" fill="url(#paint8_linear_335_3717)"/>
<path d="M166.121 103.191C166.523 104.846 166.216 116.482 166.181 118.797L165.726 150.616C165.323 181.879 164.996 213.727 164.127 244.949C163.965 252.72 163.762 260.49 163.518 268.259C163.45 271.099 163.501 277.238 163.134 279.863C162.852 279.438 162.894 278.697 162.849 278.11C162.825 266.798 162.241 254.972 161.967 243.604L161.003 186.953L160.509 137.361C160.456 127.705 160.672 116.136 160.182 106.678C161.968 105.532 164.256 104.279 166.121 103.191Z" fill="url(#paint9_linear_335_3717)"/>
<path d="M150.631 112.279L156.845 108.611C156.507 114.1 156.753 120.76 156.64 126.358L155.863 167.914L153.848 271.595L153.583 272.819L153.667 272.705L153.463 272.881C153.36 272.311 153.408 270.124 153.238 268.923L153.195 268.638C152.799 258.61 152.842 248.367 152.627 238.308L151.126 149.223C150.943 136.903 150.983 124.613 150.631 112.279Z" fill="url(#paint10_linear_335_3717)"/>
<path d="M187.285 0.592163C189.063 1.39115 192.628 3.84604 195.106 5.07537C195.189 18.7034 195.124 32.3324 194.912 45.9595C194.815 57.999 194.902 69.9373 194.586 81.9754L193.187 82.9029L188.801 85.3865C188.175 75.5914 188.283 64.9018 188.084 55.0154C187.65 36.8773 187.384 18.7354 187.285 0.592163Z" fill="url(#paint11_linear_335_3717)"/>
<path d="M237.018 121.586C239.049 122.884 241.093 124.161 243.15 125.415C243.094 139.435 242.621 153.414 242.417 167.389L241.392 235.332L240.626 262.561C240.477 267.405 240.216 271.567 240.262 276.458L239.804 276.919C239.841 263.831 239.065 249.528 238.737 236.357L237.69 166.884L237.301 136.726C237.222 131.579 236.951 126.782 237.018 121.586Z" fill="url(#paint12_linear_335_3717)"/>
<path d="M236.532 32.8981C238.934 34.1886 241.276 35.7696 243.572 37.2532C244.001 48.2348 243.521 61.9348 243.366 73.0477L242.96 120.151L242.858 120.657C241.659 120.736 238.408 118.331 237.216 117.544C237.218 89.4683 236.379 60.98 236.532 32.8981Z" fill="url(#paint13_linear_335_3717)"/>
<path d="M255.594 44.9263C258.067 46.584 260.329 47.9626 262.891 49.4848C262.741 70.3843 262.44 91.2824 261.988 112.178C261.842 118.629 261.956 125.013 261.708 131.489L261.641 131.906L261.239 131.983C259.516 131.179 257.919 130.128 256.498 128.864C256.613 119.273 256.253 107.923 256.132 98.2751L255.594 44.9263Z" fill="url(#paint14_linear_335_3717)"/>
<path d="M246.139 38.7939C248.003 39.8679 251.191 42.1509 252.959 43.4198C253.09 58.0432 252.629 73.0908 252.546 87.7377C252.474 100.261 252.694 113.256 252.143 125.722L252.023 126.063L251.722 126.14C250.095 125.368 248.441 124.325 246.886 123.392L246.301 69.8666C246.168 59.9194 245.85 48.6304 246.139 38.7939Z" fill="url(#paint15_linear_335_3717)"/>
<path d="M246.886 127.586C248.865 128.266 250.512 129.478 252.239 130.641C252.233 146.258 252.098 161.875 251.831 177.49C251.55 209.967 250.982 242.44 250.126 274.906C250.019 275.454 249.908 276.001 249.791 276.547L249.479 275.15C249.453 269.871 249.183 264.543 249.054 259.258L248.308 228.42C247.953 209.981 247.715 191.54 247.593 173.098C247.378 158.08 246.76 142.551 246.886 127.586Z" fill="url(#paint16_linear_335_3717)"/>
<path d="M197.69 7.01453C199.558 8.0527 203.048 10.5212 204.959 11.7845C204.934 32.6971 204.309 54.7492 204.75 75.53C204.049 76.0828 203.172 76.685 202.437 77.2184C200.878 78.4369 200.155 78.8018 198.37 79.4675C197.878 55.3198 197.651 31.1674 197.69 7.01453Z" fill="url(#paint17_linear_335_3717)"/>
<path d="M256.742 133.383C258.439 134.514 260.157 135.613 261.895 136.679C261.452 145.723 261.598 156.425 261.523 165.595L260.978 213.362L260.212 257.46C260.099 263.688 259.671 271.521 259.806 277.598L259.363 277.423C259.142 263.51 258.509 249.442 258.165 235.491C257.39 201.46 256.916 167.422 256.742 133.383Z" fill="url(#paint18_linear_335_3717)"/>
<path d="M266.484 139.538C268.621 140.514 269.883 141.15 271.81 142.516L270.063 239.71C269.804 252.555 269.099 265.557 268.964 278.332C268.792 276.806 269.014 276.39 268.557 274.655C268.474 265.723 267.878 256.871 267.665 247.972L266.878 193.46C266.604 175.58 266.111 157.39 266.484 139.538Z" fill="url(#paint19_linear_335_3717)"/>
<path d="M275.351 144.618C277.296 145.934 278.935 147.04 280.987 148.207C280.977 156.731 280.625 165.19 280.521 173.686L279.527 243.486C279.266 254.803 278.694 266.57 278.626 277.828C278.522 277.166 278.347 276.487 278.196 275.831C277.602 267.826 277.598 257.573 277.348 249.49C276.733 232.198 276.372 214.898 276.266 197.595L275.795 167.823C275.603 160.229 275.184 152.188 275.351 144.618Z" fill="url(#paint20_linear_335_3717)"/>
<path d="M284.96 150.741C286.962 152.029 288.539 153.161 290.437 154.568C290.158 158.65 290.285 164.503 290.194 168.742C289.895 181.275 289.716 193.809 289.658 206.345L288.802 257.964C288.658 265.323 288.322 272.38 288.267 279.799C288.223 280.378 288.278 281.214 287.986 281.565C287.379 277.634 287.384 266.925 287.252 262.439L286.298 217.978L285.254 170.14C285.146 163.931 284.778 156.924 284.96 150.741Z" fill="url(#paint21_linear_335_3717)"/>
<path d="M207.389 13.3431C209.886 14.9896 212.211 16.4916 214.58 18.3193C214.591 35.7328 214.488 53.1458 214.275 70.5579L211.917 71.7401C210.335 72.2924 209.287 72.9026 207.906 73.8089C208.089 70.3465 207.817 64.1288 207.799 60.3542L207.523 30.7114C207.452 24.909 207.228 19.1437 207.389 13.3431Z" fill="url(#paint22_linear_335_3717)"/>
<path d="M294.405 156.649L299.999 160.034C299.608 164.803 299.694 171.614 299.608 176.579C299.35 186.507 299.18 196.436 299.097 206.366L298.372 251.183C298.183 260.368 297.788 269.498 297.708 278.714C297.832 279.978 297.923 280.41 297.656 281.635L297.533 281.556L297.671 281.365L297.472 281.278C297.15 278.695 297.23 275.411 297.28 272.771L295.612 203.496L294.804 172.521C294.664 167.321 294.389 161.847 294.405 156.649Z" fill="url(#paint23_linear_335_3717)"/>
<path d="M297.279 272.77C297.855 274.727 297.351 277.829 297.707 278.714C297.831 279.977 297.922 280.409 297.656 281.634L297.532 281.555L297.67 281.364L297.471 281.278C297.149 278.694 297.229 275.41 297.279 272.77Z" fill="url(#paint24_linear_335_3717)"/>
<path d="M153.195 268.638L153.238 268.923C153.407 270.124 153.36 272.311 153.463 272.881L153.666 272.705L153.583 272.819L153.848 271.595C153.925 273.383 153.783 278.074 153.445 279.761C153.166 279.44 153.178 269.678 153.195 268.638Z" fill="url(#paint25_linear_335_3717)"/>
<path d="M249.48 275.151L249.792 276.547C249.908 276.001 250.02 275.454 250.127 274.906C250.183 277.397 250.157 279.428 249.785 281.909C249.623 279.715 249.381 277.332 249.48 275.151Z" fill="url(#paint26_linear_335_3717)"/>
<path d="M220.751 275.167C220.834 275.511 220.935 275.851 220.979 276.202L221.174 276.187C221.169 275.03 221.249 274.411 221.406 273.259C221.504 276.149 221.173 278.868 221.136 281.738C220.797 279.565 220.668 277.364 220.751 275.167Z" fill="url(#paint27_linear_335_3717)"/>
<path d="M268.559 274.655C269.016 276.39 268.794 276.806 268.966 278.332C269.122 279.577 268.983 281.352 268.931 282.645C268.483 279.868 268.497 277.457 268.559 274.655Z" fill="url(#paint28_linear_335_3717)"/>
<path d="M230.376 277.836L230.826 276.544C230.849 278.195 230.957 279.974 230.614 281.57L230.531 281.647C230.363 280.556 230.322 278.938 230.376 277.836Z" fill="url(#paint29_linear_335_3717)"/>
<path d="M259.362 277.423L259.805 277.598C259.831 278.799 259.842 279.732 259.769 280.946L259.449 280.859L259.661 281.381L259.591 281.429L259.723 280.958L259.424 280.983C259.256 279.93 259.342 278.518 259.362 277.423Z" fill="url(#paint30_linear_335_3717)"/>
<path d="M278.199 275.831C278.35 276.488 278.525 277.166 278.629 277.828C278.684 278.924 278.606 280.722 278.589 281.869C278.075 279.727 278.167 278.021 278.199 275.831Z" fill="url(#paint31_linear_335_3717)"/>
<path d="M239.803 276.918L240.261 276.457C240.257 278.085 240.281 279.784 240.19 281.402C239.916 279.579 239.802 278.747 239.803 276.918Z" fill="url(#paint32_linear_335_3717)"/>
<path d="M211.082 278.093L211.548 277.635C211.57 278.756 211.695 279.902 211.334 280.936C210.95 280.329 211.056 278.87 211.082 278.093Z" fill="url(#paint33_linear_335_3717)"/>
<path d="M191.576 276.068C191.806 277.096 191.902 277.527 191.979 278.567C192.043 279.455 191.992 279.862 191.909 280.758C191.46 279.575 191.532 277.321 191.576 276.068Z" fill="url(#paint34_linear_335_3717)"/>
<g clip-path="url(#clip1_335_3717)">
<path d="M310.068 223.389C309.977 222.489 309.977 221.59 310.068 220.69C313.038 220.421 315.243 220.106 316.684 219.746C318.214 219.296 319.429 218.352 320.329 216.913C321.229 215.384 322.264 212.955 323.435 209.627L353.409 128.946C354.129 128.676 354.985 128.496 355.975 128.406C357.055 128.226 357.91 128.136 358.54 128.136L388.785 210.437C389.955 213.585 390.9 215.833 391.62 217.183C392.43 218.532 393.555 219.386 394.996 219.746C396.436 220.106 398.686 220.421 401.747 220.69C401.837 221.59 401.837 222.489 401.747 223.389C399.407 223.389 396.751 223.344 393.781 223.254C390.9 223.164 388.245 223.119 385.814 223.119C383.294 223.119 380.909 223.164 378.658 223.254C376.498 223.344 374.158 223.389 371.637 223.389C371.547 222.489 371.547 221.59 371.637 220.69C374.788 220.421 376.858 220.151 377.848 219.881C378.928 219.521 379.468 218.712 379.468 217.452C379.468 217.003 379.378 216.463 379.198 215.833C379.018 215.114 378.748 214.259 378.388 213.27L369.072 187.231H336.937L328.16 211.786C327.26 214.214 326.81 215.968 326.81 217.048C326.81 218.487 327.485 219.386 328.835 219.746C330.186 220.106 332.391 220.421 335.451 220.69C335.542 221.59 335.542 222.489 335.451 223.389C333.201 223.389 330.996 223.344 328.835 223.254C326.765 223.164 324.605 223.119 322.354 223.119C320.554 223.119 318.529 223.164 316.278 223.254C314.118 223.344 312.048 223.389 310.068 223.389ZM338.422 183.048H367.451L352.869 142.438L338.422 183.048Z" fill="url(#paint35_linear_335_3717)"/>
<path d="M454.07 142.033L431.522 181.969V211.651C431.522 214.349 431.657 216.328 431.927 217.587C432.287 218.757 433.187 219.521 434.627 219.881C436.068 220.151 438.453 220.421 441.784 220.69C441.874 221.59 441.874 222.489 441.784 223.389C440.433 223.389 438.768 223.344 436.788 223.254C434.807 223.254 432.827 223.254 430.847 223.254C428.957 223.164 427.381 223.119 426.121 223.119C424.861 223.119 423.241 223.164 421.26 223.254C419.37 223.254 417.435 223.254 415.454 223.254C413.474 223.344 411.809 223.389 410.459 223.389C410.369 222.489 410.369 221.59 410.459 220.69C413.789 220.421 416.13 220.151 417.48 219.881C418.92 219.521 419.82 218.847 420.18 217.857C420.54 216.868 420.72 215.204 420.72 212.865V182.913L397.632 141.358C396.011 138.39 394.706 136.276 393.716 135.017C392.816 133.668 391.691 132.768 390.341 132.319C389.08 131.869 387.1 131.554 384.4 131.374C384.31 130.475 384.31 129.575 384.4 128.676C386.74 128.676 389.26 128.721 391.961 128.811C394.751 128.901 397.362 128.946 399.792 128.946C401.862 128.946 404.158 128.901 406.678 128.811C409.288 128.721 411.764 128.676 414.104 128.676C414.194 129.575 414.194 130.475 414.104 131.374C411.314 131.464 409.334 131.734 408.163 132.184C406.993 132.543 406.408 133.218 406.408 134.207C406.408 135.017 407.038 136.546 408.298 138.795L429.362 176.977L450.425 138.795C451.055 137.715 451.505 136.861 451.775 136.231C452.135 135.512 452.315 134.927 452.315 134.477C452.315 133.488 451.595 132.813 450.155 132.454C448.805 132.004 446.509 131.644 443.269 131.374C443.179 130.475 443.179 129.575 443.269 128.676C444.889 128.676 447.049 128.721 449.75 128.811C452.45 128.901 454.611 128.946 456.231 128.946C458.301 128.946 460.326 128.901 462.307 128.811C464.377 128.721 466.402 128.676 468.383 128.676C468.473 129.575 468.473 130.475 468.383 131.374C465.682 131.554 463.612 131.869 462.172 132.319C460.731 132.768 459.471 133.713 458.391 135.152C457.311 136.591 455.871 138.885 454.07 142.033Z" fill="url(#paint36_linear_335_3717)"/>
<path d="M448.929 223.389C448.839 222.489 448.839 221.59 448.929 220.69C451.899 220.421 454.105 220.106 455.545 219.746C457.075 219.296 458.29 218.352 459.191 216.913C460.091 215.384 461.126 212.955 462.296 209.627L492.271 128.946C492.991 128.676 493.846 128.496 494.836 128.406C495.916 128.226 496.771 128.136 497.401 128.136L527.646 210.437C528.817 213.585 529.762 215.833 530.482 217.183C531.292 218.532 532.416 219.386 533.857 219.746C535.298 220.106 537.547 220.421 540.608 220.69C540.699 221.59 540.699 222.489 540.608 223.389C538.269 223.389 535.612 223.344 532.642 223.254C529.762 223.164 527.106 223.119 524.676 223.119C522.155 223.119 519.77 223.164 517.52 223.254C515.359 223.344 513.019 223.389 510.499 223.389C510.408 222.489 510.408 221.59 510.499 220.69C513.649 220.421 515.719 220.151 516.709 219.881C517.79 219.521 518.33 218.712 518.33 217.452C518.33 217.003 518.24 216.463 518.06 215.833C517.88 215.114 517.61 214.259 517.25 213.27L507.933 187.231H475.798L467.022 211.786C466.122 214.214 465.672 215.968 465.672 217.048C465.672 218.487 466.347 219.386 467.697 219.746C469.047 220.106 471.252 220.421 474.313 220.69C474.403 221.59 474.403 222.489 474.313 223.389C472.062 223.389 469.857 223.344 467.697 223.254C465.627 223.164 463.466 223.119 461.216 223.119C459.416 223.119 457.39 223.164 455.14 223.254C452.98 223.344 450.909 223.389 448.929 223.389ZM477.283 183.048H506.313L491.731 142.438L477.283 183.048Z" fill="url(#paint37_linear_335_3717)"/>
<path d="M621.902 223.929L557.767 140.953V209.222C557.767 211.741 557.812 213.675 557.902 215.024C558.082 216.283 558.487 217.273 559.118 217.992C559.837 218.622 560.873 219.206 562.223 219.746C563.573 220.196 565.508 220.511 568.029 220.69C568.118 221.59 568.118 222.489 568.029 223.389C566.048 223.389 563.843 223.344 561.413 223.254C559.071 223.164 557.092 223.119 555.472 223.119C553.852 223.119 551.826 223.164 549.396 223.254C547.054 223.344 544.938 223.389 543.048 223.389C542.959 222.489 542.959 221.59 543.048 220.69C546.2 220.331 548.451 219.926 549.801 219.476C551.151 219.027 551.961 218.172 552.231 216.913C552.59 215.564 552.772 213.405 552.772 210.437V143.382C552.772 139.874 552.59 137.356 552.231 135.826C551.871 134.207 550.926 133.128 549.396 132.588C547.955 132.049 545.569 131.599 542.24 131.239C542.149 130.43 542.149 129.575 542.24 128.676C544.31 128.676 546.47 128.721 548.721 128.811C551.061 128.901 553.356 128.946 555.607 128.946C555.877 128.946 556.731 128.946 558.172 128.946C559.702 128.946 561.052 128.901 562.223 128.811L622.442 206.929V142.977C622.442 140.549 622.396 138.66 622.307 137.311C622.217 135.871 621.812 134.837 621.092 134.207C619.742 132.678 616.411 131.734 611.099 131.374C611.01 130.475 611.01 129.62 611.099 128.811C612.989 128.811 615.331 128.856 618.12 128.946C620.911 128.946 623.118 128.946 624.738 128.946C626.358 128.946 628.337 128.946 630.679 128.946C633.109 128.856 635.314 128.811 637.293 128.811C637.383 129.62 637.383 130.475 637.293 131.374C634.143 131.734 631.848 132.184 630.409 132.723C629.058 133.173 628.202 134.073 627.843 135.422C627.573 136.681 627.436 138.795 627.436 141.763V223.389C626.807 223.569 625.907 223.704 624.738 223.794C623.658 223.884 622.712 223.929 621.902 223.929Z" fill="url(#paint38_linear_335_3717)"/>
<path d="M649.669 222.849C649.581 219.971 649.49 216.823 649.399 213.405C649.399 209.897 649.264 206.254 648.994 202.476C649.446 202.386 649.851 202.341 650.209 202.341C650.661 202.341 651.11 202.341 651.56 202.341C652.551 208.458 655.07 213.135 659.121 216.373C663.262 219.521 667.988 221.095 673.298 221.095C678.88 221.095 683.154 219.476 686.125 216.238C689.095 213 690.581 208.818 690.581 203.691C690.581 199.643 689.726 196.225 688.015 193.437C686.306 190.559 683.92 187.995 680.859 185.746C677.889 183.408 674.513 181.069 670.733 178.731C667.222 176.482 663.802 174.143 660.471 171.715C657.23 169.196 654.576 166.318 652.505 163.08C650.435 159.842 649.399 155.929 649.399 151.342C649.399 146.575 650.57 142.392 652.91 138.795C655.34 135.197 658.627 132.408 662.766 130.43C666.998 128.361 671.768 127.327 677.079 127.327C678.699 127.327 680.14 127.416 681.399 127.596C682.749 127.776 684.281 127.956 685.99 128.136C687.701 128.316 689.095 128.451 690.176 128.541C691.256 128.631 692.247 128.676 693.146 128.676C693.327 128.676 693.642 128.676 694.091 128.676C694.543 128.676 695.083 128.631 695.711 128.541L696.792 147.699C696.252 147.789 695.758 147.879 695.306 147.969C694.948 147.969 694.543 147.969 694.091 147.969C693.642 145.091 692.832 142.527 691.661 140.279C690.581 138.03 689.321 136.276 687.88 135.017C686.351 133.668 684.46 132.678 682.209 132.049C679.96 131.419 677.754 131.104 675.593 131.104C670.914 131.104 666.998 132.498 663.846 135.287C660.787 137.985 659.256 141.853 659.256 146.89C659.256 150.577 660.112 153.771 661.821 156.469C663.532 159.077 665.827 161.506 668.707 163.755C671.589 165.913 674.83 168.162 678.429 170.501C681.939 172.749 685.361 175.223 688.69 177.921C692.022 180.529 694.722 183.588 696.792 187.096C698.952 190.513 700.032 194.696 700.032 199.643C700.032 204.05 699.043 208.188 697.062 212.056C695.083 215.833 692.066 218.936 688.015 221.365C683.965 223.704 678.834 224.873 672.623 224.873C671.273 224.873 669.743 224.783 668.032 224.603C666.412 224.423 663.982 224.153 660.741 223.794C658.041 223.434 655.88 223.209 654.26 223.119C652.73 222.939 651.201 222.849 649.669 222.849Z" fill="url(#paint39_linear_335_3717)"/>
<path d="M713.984 223.389C713.893 222.489 713.893 221.59 713.984 220.69C717.045 220.421 719.25 220.151 720.6 219.881C721.95 219.611 722.805 218.981 723.165 217.992C723.526 216.913 723.706 215.204 723.706 212.865V140.414C723.706 137.625 723.526 135.647 723.165 134.477C722.805 133.308 721.95 132.543 720.6 132.184C719.25 131.824 717.045 131.554 713.984 131.374C713.893 130.475 713.893 129.575 713.984 128.676C715.334 128.676 716.955 128.721 718.845 128.811C720.735 128.811 722.625 128.856 724.516 128.946C726.406 128.946 727.936 128.946 729.106 128.946C730.277 128.946 731.807 128.946 733.697 128.946C735.587 128.856 737.478 128.811 739.368 128.811C741.349 128.721 742.923 128.676 744.094 128.676C744.184 129.575 744.184 130.475 744.094 131.374C741.033 131.554 738.828 131.824 737.478 132.184C736.127 132.543 735.273 133.218 734.912 134.207C734.642 135.197 734.507 136.861 734.507 139.199V171.985H788.381V140.414C788.381 137.625 788.201 135.647 787.841 134.477C787.571 133.308 786.76 132.543 785.41 132.184C784.151 131.824 781.99 131.554 778.929 131.374C778.838 130.475 778.838 129.575 778.929 128.676C780.189 128.676 781.72 128.721 783.52 128.811C785.41 128.811 787.3 128.856 789.191 128.946C791.172 128.946 792.746 128.946 793.917 128.946C795.807 128.946 798.281 128.901 801.343 128.811C804.404 128.721 806.923 128.676 808.904 128.676C808.995 129.575 808.995 130.475 808.904 131.374C805.843 131.554 803.638 131.824 802.288 132.184C800.938 132.543 800.083 133.218 799.722 134.207C799.362 135.197 799.182 136.861 799.182 139.199V211.651C799.182 214.349 799.317 216.283 799.587 217.452C799.948 218.622 800.803 219.386 802.153 219.746C803.503 220.106 805.754 220.421 808.904 220.69C808.995 221.59 808.995 222.489 808.904 223.389C806.923 223.389 804.357 223.344 801.208 223.254C798.058 223.164 795.581 223.119 793.781 223.119C791.982 223.119 789.552 223.164 786.49 223.254C783.52 223.344 781.045 223.389 779.064 223.389C778.973 222.489 778.973 221.59 779.064 220.69C782.035 220.421 784.151 220.151 785.41 219.881C786.76 219.611 787.571 218.981 787.841 217.992C788.201 216.913 788.381 215.204 788.381 212.865V176.302H734.507V211.651C734.507 214.349 734.642 216.328 734.912 217.587C735.273 218.757 736.127 219.521 737.478 219.881C738.828 220.151 741.033 220.421 744.094 220.69C744.184 221.59 744.184 222.489 744.094 223.389C742.834 223.389 741.214 223.344 739.233 223.254C737.343 223.254 735.452 223.254 733.562 223.254C731.763 223.164 730.231 223.119 728.971 223.119C727.8 223.119 726.271 223.164 724.381 223.254C722.49 223.254 720.6 223.254 718.71 223.254C716.91 223.344 715.334 223.389 713.984 223.389Z" fill="url(#paint40_linear_335_3717)"/>
<path d="M808.97 241.738H310V281.821H808.97V241.738Z" fill="#EEC270"/>
<path d="M310 259.672H390.823C391.522 259.672 392.089 260.238 392.089 260.937V262.623C392.089 263.321 391.522 263.888 390.823 263.888H310V259.672Z" fill="#01503A"/>
<path d="M396.328 275.08C396.302 274.827 396.302 274.574 396.328 274.321C397.188 274.245 397.809 274.169 398.188 274.093C398.568 273.992 398.796 273.802 398.872 273.524C398.973 273.246 399.024 272.778 399.024 272.12V251.743C399.024 250.984 398.973 250.44 398.872 250.111C398.771 249.782 398.53 249.567 398.15 249.466C397.796 249.34 397.188 249.251 396.328 249.2C396.302 248.947 396.302 248.695 396.328 248.442C396.96 248.442 397.492 248.454 397.923 248.479C398.378 248.479 398.897 248.492 399.479 248.517C400.087 248.517 400.91 248.517 401.948 248.517C403.036 248.517 404.138 248.517 405.252 248.517C406.366 248.492 407.404 248.479 408.366 248.479C409.328 248.479 410.125 248.479 410.758 248.479C411.391 248.454 411.758 248.442 411.859 248.442C412.011 249.883 412.226 251.414 412.505 253.033C412.226 253.058 411.973 253.058 411.745 253.033C411.543 252.35 411.328 251.806 411.1 251.401C410.872 250.971 410.631 250.642 410.378 250.415C410.049 250.111 409.631 249.909 409.125 249.808C408.644 249.706 408.036 249.656 407.302 249.656H402.062V260.736H406.049C406.935 260.736 407.593 260.685 408.024 260.584C408.454 260.483 408.758 260.23 408.935 259.825C409.112 259.395 409.264 258.712 409.391 257.776C409.669 257.751 409.935 257.751 410.188 257.776C410.188 257.953 410.176 258.396 410.15 259.104C410.125 259.787 410.112 260.559 410.112 261.419C410.112 262.203 410.125 262.95 410.15 263.658C410.176 264.341 410.188 264.796 410.188 265.024C409.96 265.049 409.695 265.049 409.391 265.024C409.29 264.012 409.15 263.304 408.973 262.899C408.796 262.469 408.505 262.203 408.1 262.102C407.695 262.001 407.087 261.95 406.277 261.95H402.062V273.865H407.112C408.024 273.865 408.796 273.815 409.429 273.714C410.087 273.587 410.593 273.347 410.948 272.993C411.201 272.74 411.467 272.335 411.745 271.778C412.049 271.222 412.353 270.564 412.657 269.805C412.885 269.78 413.125 269.78 413.378 269.805C413.176 270.817 412.998 271.791 412.847 272.727C412.72 273.663 412.619 274.435 412.543 275.042C411.707 275.042 410.745 275.042 409.657 275.042C408.568 275.042 407.467 275.042 406.353 275.042C405.239 275.016 404.226 275.004 403.315 275.004C402.404 275.004 401.707 275.004 401.226 275.004C400.366 275.004 399.657 275.016 399.1 275.042C398.568 275.042 398.1 275.042 397.695 275.042C397.29 275.067 396.834 275.08 396.328 275.08Z" fill="#01503A"/>
<path d="M419.431 275.08C419.406 274.827 419.406 274.574 419.431 274.321C420.292 274.245 420.912 274.169 421.292 274.093C421.672 273.992 421.899 273.802 421.975 273.524C422.077 273.246 422.127 272.778 422.127 272.12V251.743C422.127 250.984 422.077 250.44 421.975 250.111C421.874 249.782 421.634 249.567 421.254 249.466C420.899 249.34 420.292 249.251 419.431 249.2C419.406 248.947 419.406 248.695 419.431 248.442C420.013 248.442 420.735 248.454 421.596 248.479C422.456 248.505 423.14 248.517 423.646 248.517C423.975 248.517 424.406 248.517 424.937 248.517C425.469 248.492 426.001 248.479 426.532 248.479C427.089 248.454 427.545 248.442 427.899 248.442C427.925 248.695 427.925 248.947 427.899 249.2C427.013 249.276 426.38 249.352 426.001 249.428C425.621 249.504 425.38 249.681 425.279 249.959C425.203 250.238 425.165 250.718 425.165 251.401V271.626C425.165 272.259 425.165 272.765 425.165 273.144C425.165 273.499 425.178 273.739 425.203 273.865H430.748C431.634 273.865 432.355 273.802 432.912 273.676C433.469 273.549 433.912 273.296 434.241 272.917C434.52 272.613 434.811 272.17 435.115 271.589C435.444 270.981 435.735 270.248 435.988 269.388C436.216 269.362 436.444 269.362 436.672 269.388C436.469 270.526 436.279 271.601 436.102 272.613C435.95 273.625 435.824 274.435 435.722 275.042C434.532 275.042 433.229 275.042 431.811 275.042C430.418 275.016 429.013 275.004 427.596 275.004C426.203 275.004 424.912 275.004 423.722 275.004C423.368 275.004 422.925 275.016 422.393 275.042C421.861 275.042 421.33 275.042 420.798 275.042C420.267 275.067 419.811 275.08 419.431 275.08Z" fill="#01503A"/>
<path d="M440.83 275.08C440.804 274.827 440.804 274.574 440.83 274.321C441.69 274.245 442.311 274.169 442.69 274.093C443.07 273.992 443.298 273.802 443.374 273.524C443.475 273.246 443.526 272.778 443.526 272.12V251.743C443.526 250.984 443.475 250.44 443.374 250.111C443.273 249.782 443.032 249.567 442.652 249.466C442.298 249.34 441.69 249.251 440.83 249.2C440.804 248.947 440.804 248.695 440.83 248.442C441.462 248.442 441.994 248.454 442.424 248.479C442.88 248.479 443.399 248.492 443.981 248.517C444.589 248.517 445.412 248.517 446.45 248.517C447.538 248.517 448.64 248.517 449.754 248.517C450.868 248.492 451.905 248.479 452.868 248.479C453.83 248.479 454.627 248.479 455.26 248.479C455.893 248.454 456.26 248.442 456.361 248.442C456.513 249.883 456.728 251.414 457.007 253.033C456.728 253.058 456.475 253.058 456.247 253.033C456.045 252.35 455.83 251.806 455.602 251.401C455.374 250.971 455.133 250.642 454.88 250.415C454.551 250.111 454.133 249.909 453.627 249.808C453.146 249.706 452.538 249.656 451.804 249.656H446.564V260.736H450.551C451.437 260.736 452.095 260.685 452.526 260.584C452.956 260.483 453.26 260.23 453.437 259.825C453.614 259.395 453.766 258.712 453.893 257.776C454.171 257.751 454.437 257.751 454.69 257.776C454.69 257.953 454.678 258.396 454.652 259.104C454.627 259.787 454.614 260.559 454.614 261.419C454.614 262.203 454.627 262.95 454.652 263.658C454.678 264.341 454.69 264.796 454.69 265.024C454.462 265.049 454.197 265.049 453.893 265.024C453.792 264.012 453.652 263.304 453.475 262.899C453.298 262.469 453.007 262.203 452.602 262.102C452.197 262.001 451.589 261.95 450.779 261.95H446.564V273.865H451.614C452.526 273.865 453.298 273.815 453.931 273.714C454.589 273.587 455.095 273.347 455.45 272.993C455.703 272.74 455.969 272.335 456.247 271.778C456.551 271.222 456.855 270.564 457.159 269.805C457.387 269.78 457.627 269.78 457.88 269.805C457.678 270.817 457.5 271.791 457.349 272.727C457.222 273.663 457.121 274.435 457.045 275.042C456.209 275.042 455.247 275.042 454.159 275.042C453.07 275.042 451.969 275.042 450.855 275.042C449.741 275.016 448.728 275.004 447.817 275.004C446.905 275.004 446.209 275.004 445.728 275.004C444.868 275.004 444.159 275.016 443.602 275.042C443.07 275.042 442.602 275.042 442.197 275.042C441.792 275.067 441.336 275.08 440.83 275.08Z" fill="#01503A"/>
<path d="M486.375 248.442C486.4 248.695 486.4 248.947 486.375 249.2C485.464 249.251 484.78 249.34 484.325 249.466C483.894 249.593 483.552 249.871 483.299 250.301C483.046 250.706 482.742 251.376 482.388 252.312L473.844 275.004C473.666 275.08 473.426 275.13 473.122 275.155C472.844 275.206 472.603 275.231 472.4 275.231L463.78 252.084C463.451 251.199 463.173 250.566 462.945 250.187C462.717 249.808 462.388 249.567 461.957 249.466C461.552 249.34 460.881 249.251 459.945 249.2C459.919 248.947 459.919 248.695 459.945 248.442C460.603 248.442 461.375 248.454 462.261 248.479C463.147 248.505 463.932 248.517 464.616 248.517C465.325 248.517 466.021 248.505 466.704 248.479C467.413 248.454 468.122 248.442 468.831 248.442C468.856 248.695 468.856 248.947 468.831 249.2C467.818 249.276 467.16 249.365 466.856 249.466C466.552 249.542 466.4 249.757 466.4 250.111C466.4 250.238 466.426 250.402 466.476 250.604C466.527 250.782 466.603 251.009 466.704 251.287L473.995 271.209L481.059 251.705C481.312 251.022 481.438 250.529 481.438 250.225C481.438 249.82 481.236 249.567 480.831 249.466C480.451 249.365 479.768 249.276 478.78 249.2C478.755 248.947 478.755 248.695 478.78 248.442C479.413 248.442 480.059 248.454 480.717 248.479C481.4 248.505 482.059 248.517 482.692 248.517C483.198 248.517 483.793 248.505 484.476 248.479C485.185 248.454 485.818 248.442 486.375 248.442Z" fill="#01503A"/>
<path d="M482.566 275.08C482.541 274.827 482.541 274.574 482.566 274.321C483.401 274.245 484.022 274.156 484.427 274.055C484.857 273.929 485.199 273.663 485.452 273.258C485.705 272.828 485.996 272.145 486.325 271.209L494.756 248.517C494.958 248.442 495.199 248.391 495.477 248.366C495.781 248.315 496.022 248.29 496.199 248.29L504.705 271.437C505.034 272.322 505.3 272.955 505.503 273.334C505.73 273.714 506.047 273.954 506.452 274.055C506.857 274.156 507.49 274.245 508.351 274.321C508.376 274.574 508.376 274.827 508.351 275.08C507.692 275.08 506.946 275.067 506.11 275.042C505.3 275.016 504.553 275.004 503.87 275.004C503.161 275.004 502.49 275.016 501.857 275.042C501.249 275.067 500.591 275.08 499.882 275.08C499.857 274.827 499.857 274.574 499.882 274.321C500.768 274.245 501.351 274.169 501.629 274.093C501.933 273.992 502.085 273.764 502.085 273.41C502.085 273.284 502.06 273.132 502.009 272.955C501.958 272.752 501.882 272.512 501.781 272.234L499.161 264.91H490.123L487.654 271.816C487.401 272.499 487.275 272.993 487.275 273.296C487.275 273.701 487.465 273.954 487.844 274.055C488.224 274.156 488.844 274.245 489.705 274.321C489.73 274.574 489.73 274.827 489.705 275.08C489.072 275.08 488.452 275.067 487.844 275.042C487.262 275.016 486.654 275.004 486.022 275.004C485.515 275.004 484.946 275.016 484.313 275.042C483.705 275.067 483.123 275.08 482.566 275.08ZM490.541 263.734H498.705L494.604 252.312L490.541 263.734Z" fill="#01503A"/>
<path d="M513.911 275.08C513.886 274.827 513.886 274.574 513.911 274.321C514.822 274.245 515.468 274.169 515.848 274.093C516.253 274.017 516.493 273.84 516.569 273.562C516.67 273.258 516.721 272.778 516.721 272.12V249.618H511.898C510.886 249.618 510.126 249.732 509.62 249.959C509.113 250.187 508.721 250.592 508.443 251.174C508.164 251.73 507.873 252.552 507.569 253.64C507.341 253.665 507.101 253.665 506.848 253.64C506.974 252.755 507.088 251.857 507.189 250.946C507.291 250.01 507.379 249.162 507.455 248.404C508.645 248.454 510.076 248.492 511.746 248.517C513.417 248.517 515.594 248.517 518.278 248.517C521.013 248.517 523.202 248.517 524.848 248.517C526.494 248.492 527.911 248.454 529.101 248.404C529.152 249.137 529.228 249.972 529.329 250.908C529.43 251.844 529.532 252.755 529.633 253.64C529.354 253.665 529.101 253.665 528.873 253.64C528.544 252.552 528.24 251.718 527.962 251.136C527.684 250.554 527.291 250.162 526.785 249.959C526.304 249.732 525.557 249.618 524.544 249.618H519.759V271.778C519.759 272.537 519.797 273.094 519.873 273.448C519.974 273.777 520.215 273.992 520.594 274.093C521 274.169 521.658 274.245 522.57 274.321C522.595 274.574 522.595 274.827 522.57 275.08C522.19 275.08 521.721 275.067 521.165 275.042C520.632 275.042 520.101 275.042 519.569 275.042C519.038 275.016 518.594 275.004 518.24 275.004C517.708 275.004 517 275.016 516.113 275.042C515.227 275.067 514.493 275.08 513.911 275.08Z" fill="#01503A"/>
<path d="M539.681 251.401V271.778C539.681 272.537 539.719 273.094 539.795 273.448C539.871 273.777 540.098 273.992 540.478 274.093C540.858 274.169 541.503 274.245 542.415 274.321C542.44 274.574 542.44 274.827 542.415 275.08C541.858 275.08 541.136 275.067 540.25 275.042C539.364 275.016 538.668 275.004 538.162 275.004C537.605 275.004 536.896 275.016 536.035 275.042C535.174 275.067 534.453 275.08 533.871 275.08C533.845 274.827 533.845 274.574 533.871 274.321C534.757 274.245 535.39 274.169 535.769 274.093C536.174 274.017 536.415 273.84 536.491 273.562C536.592 273.258 536.643 272.778 536.643 272.12V251.743C536.643 250.984 536.592 250.44 536.491 250.111C536.39 249.782 536.149 249.567 535.769 249.466C535.39 249.34 534.757 249.251 533.871 249.2C533.845 248.947 533.845 248.695 533.871 248.442C534.25 248.442 534.706 248.454 535.238 248.479C535.795 248.479 536.339 248.492 536.871 248.517C537.402 248.517 537.845 248.517 538.2 248.517C538.554 248.517 538.984 248.517 539.491 248.517C540.022 248.492 540.554 248.479 541.086 248.479C541.617 248.454 542.06 248.442 542.415 248.442C542.44 248.695 542.44 248.947 542.415 249.2C541.529 249.276 540.896 249.352 540.516 249.428C540.136 249.504 539.896 249.681 539.795 249.959C539.719 250.238 539.681 250.718 539.681 251.401Z" fill="#01503A"/>
<path d="M571.283 275.231L553.245 251.895V271.095C553.245 271.804 553.258 272.347 553.283 272.727C553.334 273.081 553.448 273.359 553.625 273.562C553.828 273.739 554.119 273.903 554.499 274.055C554.878 274.182 555.423 274.27 556.132 274.321C556.157 274.574 556.157 274.827 556.132 275.08C555.575 275.08 554.954 275.067 554.271 275.042C553.613 275.016 553.056 275.004 552.6 275.004C552.144 275.004 551.575 275.016 550.891 275.042C550.233 275.067 549.638 275.08 549.106 275.08C549.081 274.827 549.081 274.574 549.106 274.321C549.992 274.219 550.625 274.106 551.005 273.979C551.385 273.853 551.613 273.612 551.688 273.258C551.79 272.879 551.84 272.272 551.84 271.437V252.578C551.84 251.591 551.79 250.883 551.688 250.453C551.587 249.997 551.321 249.694 550.891 249.542C550.486 249.39 549.815 249.264 548.878 249.162C548.853 248.935 548.853 248.695 548.878 248.442C549.461 248.442 550.068 248.454 550.701 248.479C551.359 248.505 552.005 248.517 552.638 248.517C552.714 248.517 552.954 248.517 553.359 248.517C553.79 248.517 554.17 248.505 554.499 248.479L571.435 270.45V252.464C571.435 251.781 571.423 251.25 571.397 250.87C571.372 250.465 571.258 250.174 571.056 249.997C570.676 249.567 569.739 249.302 568.245 249.2C568.22 248.947 568.22 248.707 568.245 248.479C568.777 248.479 569.435 248.492 570.22 248.517C571.005 248.517 571.625 248.517 572.081 248.517C572.537 248.517 573.094 248.517 573.752 248.517C574.435 248.492 575.056 248.479 575.613 248.479C575.638 248.707 575.638 248.947 575.613 249.2C574.726 249.302 574.081 249.428 573.676 249.58C573.296 249.706 573.056 249.959 572.954 250.339C572.878 250.693 572.84 251.287 572.84 252.122V275.08C572.663 275.13 572.41 275.168 572.081 275.193C571.777 275.219 571.511 275.231 571.283 275.231Z" fill="#01503A"/>
<path d="M595.118 249.163C592.966 249.163 591.169 249.491 589.726 250.149C588.283 250.807 587.131 251.718 586.27 252.881C585.409 254.02 584.789 255.335 584.409 256.828C584.03 258.295 583.84 259.838 583.84 261.457C583.84 264.012 584.257 266.264 585.093 268.211C585.954 270.134 587.245 271.639 588.966 272.727C590.713 273.789 592.89 274.321 595.498 274.321C596.333 274.321 597.257 274.27 598.27 274.169C599.283 274.042 600.257 273.865 601.194 273.638V265.859C601.194 265.1 601.143 264.556 601.042 264.227C600.941 263.898 600.675 263.683 600.245 263.582C599.814 263.481 599.118 263.392 598.156 263.316C598.131 263.063 598.131 262.823 598.156 262.595C598.536 262.595 599.004 262.608 599.561 262.633C600.118 262.633 600.675 262.646 601.232 262.671C601.789 262.671 602.257 262.671 602.637 262.671C603.017 262.671 603.46 262.671 603.966 262.671C604.498 262.646 604.992 262.633 605.447 262.633C605.928 262.608 606.283 262.595 606.511 262.595C606.536 262.823 606.536 263.063 606.511 263.316C605.751 263.392 605.207 263.481 604.878 263.582C604.548 263.683 604.346 263.873 604.27 264.151C604.194 264.429 604.156 264.897 604.156 265.555V270.678C604.156 271.538 604.169 272.284 604.194 272.917C604.245 273.524 604.283 273.954 604.308 274.207C603.067 274.612 601.65 274.928 600.055 275.156C598.46 275.383 596.954 275.497 595.536 275.497C592.473 275.497 589.802 274.978 587.523 273.941C585.27 272.879 583.523 271.348 582.283 269.35C581.042 267.326 580.422 264.872 580.422 261.988C580.422 259.18 581.004 256.739 582.169 254.665C583.359 252.565 585.055 250.946 587.257 249.808C589.46 248.644 592.093 248.062 595.156 248.062C596.017 248.062 596.89 248.113 597.776 248.214C598.688 248.29 599.726 248.429 600.89 248.631C601.321 248.707 601.738 248.783 602.143 248.859C602.548 248.935 602.979 248.973 603.435 248.973C603.51 248.973 603.586 248.973 603.662 248.973C603.764 248.973 603.89 248.96 604.042 248.935C604.067 249.744 604.105 250.731 604.156 251.895C604.232 253.058 604.295 254.108 604.346 255.044C604.194 255.069 604.067 255.095 603.966 255.12C603.865 255.12 603.751 255.12 603.624 255.12C603.346 253.248 602.511 251.793 601.118 250.756C599.751 249.694 597.751 249.163 595.118 249.163Z" fill="#01503A"/>
<path d="M623.47 275.08C623.445 274.827 623.445 274.574 623.47 274.321C624.331 274.245 624.951 274.169 625.331 274.093C625.711 273.992 625.939 273.802 626.014 273.524C626.116 273.246 626.166 272.778 626.166 272.12V251.743C626.166 250.984 626.116 250.44 626.014 250.111C625.913 249.782 625.673 249.567 625.293 249.466C624.939 249.34 624.331 249.251 623.47 249.2C623.445 248.947 623.445 248.695 623.47 248.442C624.052 248.442 624.774 248.454 625.635 248.479C626.495 248.505 627.179 248.517 627.685 248.517C628.014 248.517 628.445 248.517 628.976 248.517C629.508 248.492 630.04 248.479 630.571 248.479C631.128 248.454 631.584 248.442 631.938 248.442C631.964 248.695 631.964 248.947 631.938 249.2C631.052 249.276 630.42 249.352 630.04 249.428C629.66 249.504 629.42 249.681 629.318 249.959C629.242 250.238 629.204 250.718 629.204 251.401V271.626C629.204 272.259 629.204 272.765 629.204 273.144C629.204 273.499 629.217 273.739 629.242 273.865H634.787C635.673 273.865 636.394 273.802 636.951 273.676C637.508 273.549 637.951 273.296 638.28 272.917C638.559 272.613 638.85 272.17 639.154 271.589C639.483 270.981 639.774 270.248 640.027 269.388C640.255 269.362 640.483 269.362 640.711 269.388C640.508 270.526 640.318 271.601 640.141 272.613C639.989 273.625 639.863 274.435 639.761 275.042C638.571 275.042 637.268 275.042 635.85 275.042C634.457 275.016 633.052 275.004 631.635 275.004C630.242 275.004 628.951 275.004 627.761 275.004C627.407 275.004 626.964 275.016 626.432 275.042C625.901 275.042 625.369 275.042 624.837 275.042C624.306 275.067 623.85 275.08 623.47 275.08Z" fill="#01503A"/>
<path d="M650.603 251.401V271.778C650.603 272.537 650.641 273.094 650.716 273.448C650.792 273.777 651.02 273.992 651.4 274.093C651.78 274.169 652.425 274.245 653.337 274.321C653.362 274.574 653.362 274.827 653.337 275.08C652.78 275.08 652.058 275.067 651.172 275.042C650.286 275.016 649.59 275.004 649.084 275.004C648.527 275.004 647.818 275.016 646.957 275.042C646.096 275.067 645.375 275.08 644.792 275.08C644.767 274.827 644.767 274.574 644.792 274.321C645.679 274.245 646.311 274.169 646.691 274.093C647.096 274.017 647.337 273.84 647.413 273.562C647.514 273.258 647.565 272.778 647.565 272.12V251.743C647.565 250.984 647.514 250.44 647.413 250.111C647.311 249.782 647.071 249.567 646.691 249.466C646.311 249.34 645.679 249.251 644.792 249.2C644.767 248.947 644.767 248.695 644.792 248.442C645.172 248.442 645.628 248.454 646.16 248.479C646.716 248.479 647.261 248.492 647.792 248.517C648.324 248.517 648.767 248.517 649.122 248.517C649.476 248.517 649.906 248.517 650.413 248.517C650.944 248.492 651.476 248.479 652.008 248.479C652.539 248.454 652.982 248.442 653.337 248.442C653.362 248.695 653.362 248.947 653.337 249.2C652.451 249.276 651.818 249.352 651.438 249.428C651.058 249.504 650.818 249.681 650.716 249.959C650.641 250.238 650.603 250.718 650.603 251.401Z" fill="#01503A"/>
<path d="M682.887 248.442C682.912 248.695 682.912 248.947 682.887 249.2C681.975 249.251 681.292 249.34 680.836 249.466C680.406 249.593 680.064 249.871 679.811 250.301C679.558 250.706 679.254 251.376 678.9 252.312L670.355 275.004C670.178 275.08 669.938 275.13 669.634 275.155C669.355 275.206 669.115 275.231 668.912 275.231L660.292 252.084C659.963 251.199 659.684 250.566 659.456 250.187C659.229 249.808 658.9 249.567 658.469 249.466C658.064 249.34 657.393 249.251 656.456 249.2C656.431 248.947 656.431 248.695 656.456 248.442C657.115 248.442 657.887 248.454 658.773 248.479C659.659 248.505 660.444 248.517 661.127 248.517C661.836 248.517 662.532 248.505 663.216 248.479C663.925 248.454 664.634 248.442 665.343 248.442C665.368 248.695 665.368 248.947 665.343 249.2C664.33 249.276 663.672 249.365 663.368 249.466C663.064 249.542 662.912 249.757 662.912 250.111C662.912 250.238 662.937 250.402 662.988 250.604C663.039 250.782 663.115 251.009 663.216 251.287L670.507 271.209L677.57 251.705C677.824 251.022 677.95 250.529 677.95 250.225C677.95 249.82 677.748 249.567 677.343 249.466C676.963 249.365 676.279 249.276 675.292 249.2C675.267 248.947 675.267 248.695 675.292 248.442C675.925 248.442 676.57 248.454 677.229 248.479C677.912 248.505 678.57 248.517 679.203 248.517C679.71 248.517 680.305 248.505 680.988 248.479C681.697 248.454 682.33 248.442 682.887 248.442Z" fill="#01503A"/>
<path d="M685.736 275.08C685.71 274.827 685.71 274.574 685.736 274.321C686.597 274.245 687.217 274.169 687.597 274.093C687.976 273.992 688.204 273.802 688.28 273.524C688.381 273.246 688.432 272.778 688.432 272.12V251.743C688.432 250.984 688.381 250.44 688.28 250.111C688.179 249.782 687.938 249.567 687.559 249.466C687.204 249.34 686.597 249.251 685.736 249.2C685.71 248.947 685.71 248.695 685.736 248.442C686.369 248.442 686.9 248.454 687.331 248.479C687.786 248.479 688.305 248.492 688.888 248.517C689.495 248.517 690.318 248.517 691.356 248.517C692.445 248.517 693.546 248.517 694.66 248.517C695.774 248.492 696.812 248.479 697.774 248.479C698.736 248.479 699.533 248.479 700.166 248.479C700.799 248.454 701.166 248.442 701.267 248.442C701.419 249.883 701.635 251.414 701.913 253.033C701.635 253.058 701.381 253.058 701.154 253.033C700.951 252.35 700.736 251.806 700.508 251.401C700.28 250.971 700.04 250.642 699.786 250.415C699.457 250.111 699.04 249.909 698.533 249.808C698.052 249.706 697.445 249.656 696.71 249.656H691.47V260.736H695.457C696.343 260.736 697.002 260.685 697.432 260.584C697.862 260.483 698.166 260.23 698.343 259.825C698.521 259.395 698.672 258.712 698.799 257.776C699.078 257.751 699.343 257.751 699.597 257.776C699.597 257.953 699.584 258.396 699.559 259.104C699.533 259.787 699.521 260.559 699.521 261.419C699.521 262.203 699.533 262.95 699.559 263.658C699.584 264.341 699.597 264.796 699.597 265.024C699.369 265.049 699.103 265.049 698.799 265.024C698.698 264.012 698.559 263.304 698.381 262.899C698.204 262.469 697.913 262.203 697.508 262.102C697.103 262.001 696.495 261.95 695.685 261.95H691.47V273.865H696.521C697.432 273.865 698.204 273.815 698.837 273.714C699.495 273.587 700.002 273.347 700.356 272.993C700.609 272.74 700.875 272.335 701.154 271.778C701.457 271.222 701.761 270.564 702.065 269.805C702.293 269.78 702.533 269.78 702.786 269.805C702.584 270.817 702.407 271.791 702.255 272.727C702.128 273.663 702.027 274.435 701.951 275.042C701.116 275.042 700.154 275.042 699.065 275.042C697.976 275.042 696.875 275.042 695.761 275.042C694.647 275.016 693.635 275.004 692.723 275.004C691.812 275.004 691.116 275.004 690.635 275.004C689.774 275.004 689.065 275.016 688.508 275.042C687.976 275.042 687.508 275.042 687.103 275.042C686.698 275.067 686.242 275.08 685.736 275.08Z" fill="#01503A"/>
<path d="M708.498 274.928C708.473 274.118 708.448 273.233 708.423 272.272C708.423 271.285 708.385 270.261 708.309 269.198C708.435 269.173 708.549 269.16 708.65 269.16C708.777 269.16 708.904 269.16 709.03 269.16C709.309 270.88 710.017 272.196 711.157 273.106C712.321 273.992 713.65 274.435 715.144 274.435C716.714 274.435 717.916 273.979 718.752 273.069C719.587 272.158 720.005 270.981 720.005 269.54C720.005 268.401 719.764 267.44 719.283 266.656C718.802 265.846 718.131 265.125 717.271 264.493C716.435 263.835 715.486 263.177 714.423 262.52C713.435 261.887 712.473 261.229 711.536 260.546C710.625 259.838 709.878 259.029 709.296 258.118C708.714 257.207 708.423 256.107 708.423 254.817C708.423 253.476 708.752 252.299 709.41 251.288C710.093 250.276 711.017 249.491 712.182 248.935C713.372 248.353 714.714 248.062 716.207 248.062C716.663 248.062 717.068 248.087 717.423 248.138C717.802 248.189 718.233 248.239 718.714 248.29C719.195 248.34 719.587 248.378 719.891 248.404C720.195 248.429 720.473 248.442 720.726 248.442C720.777 248.442 720.866 248.442 720.992 248.442C721.119 248.442 721.271 248.429 721.448 248.404L721.752 253.792C721.6 253.817 721.46 253.843 721.334 253.868C721.233 253.868 721.119 253.868 720.992 253.868C720.866 253.058 720.638 252.337 720.309 251.705C720.005 251.073 719.65 250.579 719.245 250.225C718.815 249.846 718.283 249.567 717.65 249.39C717.017 249.213 716.397 249.125 715.79 249.125C714.473 249.125 713.372 249.517 712.486 250.301C711.625 251.06 711.195 252.148 711.195 253.564C711.195 254.601 711.435 255.5 711.916 256.258C712.397 256.992 713.043 257.675 713.853 258.308C714.663 258.915 715.574 259.547 716.587 260.205C717.574 260.837 718.536 261.533 719.473 262.292C720.41 263.025 721.169 263.886 721.752 264.872C722.359 265.833 722.663 267.01 722.663 268.401C722.663 269.641 722.385 270.804 721.828 271.892C721.271 272.955 720.423 273.827 719.283 274.51C718.144 275.168 716.701 275.497 714.954 275.497C714.574 275.497 714.144 275.472 713.663 275.421C713.207 275.371 712.524 275.295 711.612 275.193C710.853 275.092 710.245 275.029 709.79 275.004C709.359 274.953 708.929 274.928 708.498 274.928Z" fill="#01503A"/>
<path d="M726.883 260.937C726.883 260.238 727.45 259.672 728.149 259.672H808.971V263.888H728.149C727.45 263.888 726.883 263.321 726.883 262.623V260.937Z" fill="#01503A"/>
</g>
</g>
<defs>
<linearGradient id="paint0_linear_335_3717" x1="149.8" y1="21.0408" x2="-76.8465" y2="168.701" gradientUnits="userSpaceOnUse">
<stop stop-color="#FFD87B"/>
<stop offset="1" stop-color="#CD955A"/>
</linearGradient>
<linearGradient id="paint1_linear_335_3717" x1="223.023" y1="38.7439" x2="209.978" y2="39.1236" gradientUnits="userSpaceOnUse">
<stop stop-color="#FFD87B"/>
<stop offset="1" stop-color="#CD955A"/>
</linearGradient>
<linearGradient id="paint2_linear_335_3717" x1="232.796" y1="45.0672" x2="220.331" y2="45.4208" gradientUnits="userSpaceOnUse">
<stop stop-color="#FFD87B"/>
<stop offset="1" stop-color="#CD955A"/>
</linearGradient>
<linearGradient id="paint3_linear_335_3717" x1="213.151" y1="89.6216" x2="201.729" y2="89.9883" gradientUnits="userSpaceOnUse">
<stop stop-color="#FFD87B"/>
<stop offset="1" stop-color="#CD955A"/>
</linearGradient>
<linearGradient id="paint4_linear_335_3717" x1="203.594" y1="94.8188" x2="192.294" y2="95.1827" gradientUnits="userSpaceOnUse">
<stop stop-color="#FFD87B"/>
<stop offset="1" stop-color="#CD955A"/>
</linearGradient>
<linearGradient id="paint5_linear_335_3717" x1="193.862" y1="99.7536" x2="182.756" y2="100.119" gradientUnits="userSpaceOnUse">
<stop stop-color="#FFD87B"/>
<stop offset="1" stop-color="#CD955A"/>
</linearGradient>
<linearGradient id="paint6_linear_335_3717" x1="184.233" y1="105.366" x2="172.889" y2="105.755" gradientUnits="userSpaceOnUse">
<stop stop-color="#FFD87B"/>
<stop offset="1" stop-color="#CD955A"/>
</linearGradient>
<linearGradient id="paint7_linear_335_3717" x1="182.691" y1="269.682" x2="181.492" y2="269.75" gradientUnits="userSpaceOnUse">
<stop stop-color="#FFD87B"/>
<stop offset="1" stop-color="#CD955A"/>
</linearGradient>
<linearGradient id="paint8_linear_335_3717" x1="174.809" y1="111.072" x2="163.5" y2="111.479" gradientUnits="userSpaceOnUse">
<stop stop-color="#FFD87B"/>
<stop offset="1" stop-color="#CD955A"/>
</linearGradient>
<linearGradient id="paint9_linear_335_3717" x1="165.16" y1="116.311" x2="154.444" y2="116.683" gradientUnits="userSpaceOnUse">
<stop stop-color="#FFD87B"/>
<stop offset="1" stop-color="#CD955A"/>
</linearGradient>
<linearGradient id="paint10_linear_335_3717" x1="155.666" y1="120.811" x2="144.83" y2="121.22" gradientUnits="userSpaceOnUse">
<stop stop-color="#FFD87B"/>
<stop offset="1" stop-color="#CD955A"/>
</linearGradient>
<linearGradient id="paint11_linear_335_3717" x1="193.65" y1="6.88929" x2="180.049" y2="8.1474" gradientUnits="userSpaceOnUse">
<stop stop-color="#FFD87B"/>
<stop offset="1" stop-color="#CD955A"/>
</linearGradient>
<linearGradient id="paint12_linear_335_3717" x1="241.985" y1="133.121" x2="231.275" y2="133.544" gradientUnits="userSpaceOnUse">
<stop stop-color="#FFD87B"/>
<stop offset="1" stop-color="#CD955A"/>
</linearGradient>
<linearGradient id="paint13_linear_335_3717" x1="242.373" y1="39.4155" x2="229.83" y2="40.4475" gradientUnits="userSpaceOnUse">
<stop stop-color="#FFD87B"/>
<stop offset="1" stop-color="#CD955A"/>
</linearGradient>
<linearGradient id="paint14_linear_335_3717" x1="261.506" y1="51.3914" x2="248.852" y2="52.4504" gradientUnits="userSpaceOnUse">
<stop stop-color="#FFD87B"/>
<stop offset="1" stop-color="#CD955A"/>
</linearGradient>
<linearGradient id="paint15_linear_335_3717" x1="251.661" y1="45.2806" x2="239.583" y2="46.2415" gradientUnits="userSpaceOnUse">
<stop stop-color="#FFD87B"/>
<stop offset="1" stop-color="#CD955A"/>
</linearGradient>
<linearGradient id="paint16_linear_335_3717" x1="251.22" y1="138.648" x2="241.855" y2="138.985" gradientUnits="userSpaceOnUse">
<stop stop-color="#FFD87B"/>
<stop offset="1" stop-color="#CD955A"/>
</linearGradient>
<linearGradient id="paint17_linear_335_3717" x1="203.578" y1="12.3951" x2="191.004" y2="13.6554" gradientUnits="userSpaceOnUse">
<stop stop-color="#FFD87B"/>
<stop offset="1" stop-color="#CD955A"/>
</linearGradient>
<linearGradient id="paint18_linear_335_3717" x1="260.917" y1="144.093" x2="251.931" y2="144.413" gradientUnits="userSpaceOnUse">
<stop stop-color="#FFD87B"/>
<stop offset="1" stop-color="#CD955A"/>
</linearGradient>
<linearGradient id="paint19_linear_335_3717" x1="270.773" y1="149.846" x2="261.254" y2="150.219" gradientUnits="userSpaceOnUse">
<stop stop-color="#FFD87B"/>
<stop offset="1" stop-color="#CD955A"/>
</linearGradient>
<linearGradient id="paint20_linear_335_3717" x1="279.91" y1="154.511" x2="270.02" y2="154.931" gradientUnits="userSpaceOnUse">
<stop stop-color="#FFD87B"/>
<stop offset="1" stop-color="#CD955A"/>
</linearGradient>
<linearGradient id="paint21_linear_335_3717" x1="289.388" y1="160.457" x2="279.755" y2="160.863" gradientUnits="userSpaceOnUse">
<stop stop-color="#FFD87B"/>
<stop offset="1" stop-color="#CD955A"/>
</linearGradient>
<linearGradient id="paint22_linear_335_3717" x1="213.205" y1="17.8335" x2="200.726" y2="19.3272" gradientUnits="userSpaceOnUse">
<stop stop-color="#FFD87B"/>
<stop offset="1" stop-color="#CD955A"/>
</linearGradient>
<linearGradient id="paint23_linear_335_3717" x1="298.937" y1="165.931" x2="289.187" y2="166.367" gradientUnits="userSpaceOnUse">
<stop stop-color="#FFD87B"/>
<stop offset="1" stop-color="#CD955A"/>
</linearGradient>
<linearGradient id="paint24_linear_335_3717" x1="297.715" y1="273.428" x2="296.68" y2="273.498" gradientUnits="userSpaceOnUse">
<stop stop-color="#FFD87B"/>
<stop offset="1" stop-color="#CD955A"/>
</linearGradient>
<linearGradient id="paint25_linear_335_3717" x1="153.739" y1="269.464" x2="152.555" y2="269.537" gradientUnits="userSpaceOnUse">
<stop stop-color="#FFD87B"/>
<stop offset="1" stop-color="#CD955A"/>
</linearGradient>
<linearGradient id="paint26_linear_335_3717" x1="250.018" y1="275.426" x2="248.821" y2="275.544" gradientUnits="userSpaceOnUse">
<stop stop-color="#FFD87B"/>
<stop offset="1" stop-color="#CD955A"/>
</linearGradient>
<linearGradient id="paint27_linear_335_3717" x1="221.292" y1="273.889" x2="220.082" y2="273.988" gradientUnits="userSpaceOnUse">
<stop stop-color="#FFD87B"/>
<stop offset="1" stop-color="#CD955A"/>
</linearGradient>
<linearGradient id="paint28_linear_335_3717" x1="268.941" y1="275.248" x2="268.053" y2="275.305" gradientUnits="userSpaceOnUse">
<stop stop-color="#FFD87B"/>
<stop offset="1" stop-color="#CD955A"/>
</linearGradient>
<linearGradient id="paint29_linear_335_3717" x1="230.764" y1="276.923" x2="229.888" y2="277.01" gradientUnits="userSpaceOnUse">
<stop stop-color="#FFD87B"/>
<stop offset="1" stop-color="#CD955A"/>
</linearGradient>
<linearGradient id="paint30_linear_335_3717" x1="259.729" y1="277.721" x2="258.866" y2="277.829" gradientUnits="userSpaceOnUse">
<stop stop-color="#FFD87B"/>
<stop offset="1" stop-color="#CD955A"/>
</linearGradient>
<linearGradient id="paint31_linear_335_3717" x1="278.558" y1="276.28" x2="277.731" y2="276.345" gradientUnits="userSpaceOnUse">
<stop stop-color="#FFD87B"/>
<stop offset="1" stop-color="#CD955A"/>
</linearGradient>
<linearGradient id="paint32_linear_335_3717" x1="240.174" y1="276.825" x2="239.381" y2="276.898" gradientUnits="userSpaceOnUse">
<stop stop-color="#FFD87B"/>
<stop offset="1" stop-color="#CD955A"/>
</linearGradient>
<linearGradient id="paint33_linear_335_3717" x1="211.484" y1="277.88" x2="210.57" y2="278.028" gradientUnits="userSpaceOnUse">
<stop stop-color="#FFD87B"/>
<stop offset="1" stop-color="#CD955A"/>
</linearGradient>
<linearGradient id="paint34_linear_335_3717" x1="191.92" y1="276.416" x2="191.116" y2="276.495" gradientUnits="userSpaceOnUse">
<stop stop-color="#FFD87B"/>
<stop offset="1" stop-color="#CD955A"/>
</linearGradient>
<linearGradient id="paint35_linear_335_3717" x1="810" y1="126.287" x2="767.134" y2="324.319" gradientUnits="userSpaceOnUse">
<stop stop-color="#FFD87B"/>
<stop offset="1" stop-color="#CD955A"/>
</linearGradient>
<linearGradient id="paint36_linear_335_3717" x1="810.001" y1="126.287" x2="767.135" y2="324.319" gradientUnits="userSpaceOnUse">
<stop stop-color="#FFD87B"/>
<stop offset="1" stop-color="#CD955A"/>
</linearGradient>
<linearGradient id="paint37_linear_335_3717" x1="810.001" y1="126.287" x2="767.134" y2="324.319" gradientUnits="userSpaceOnUse">
<stop stop-color="#FFD87B"/>
<stop offset="1" stop-color="#CD955A"/>
</linearGradient>
<linearGradient id="paint38_linear_335_3717" x1="809.999" y1="126.287" x2="767.133" y2="324.319" gradientUnits="userSpaceOnUse">
<stop stop-color="#FFD87B"/>
<stop offset="1" stop-color="#CD955A"/>
</linearGradient>
<linearGradient id="paint39_linear_335_3717" x1="810" y1="126.287" x2="767.134" y2="324.319" gradientUnits="userSpaceOnUse">
<stop stop-color="#FFD87B"/>
<stop offset="1" stop-color="#CD955A"/>
</linearGradient>
<linearGradient id="paint40_linear_335_3717" x1="810.001" y1="126.287" x2="767.135" y2="324.319" gradientUnits="userSpaceOnUse">
<stop stop-color="#FFD87B"/>
<stop offset="1" stop-color="#CD955A"/>
</linearGradient>
<clipPath id="clip0_335_3717">
<rect width="809.999" height="283.327" fill="white"/>
</clipPath>
<clipPath id="clip1_335_3717">
<rect width="500" height="156" fill="white" transform="translate(310 127.327)"/>
</clipPath>
</defs>
</svg>
