<svg width="128" height="40" viewBox="0 0 128 40" fill="none" xmlns="http://www.w3.org/2000/svg">
<g clip-path="url(#clip0_288_280)">
<path d="M0.0172827 24.6311C-0.0057609 24.4004 -0.0057609 24.1698 0.0172827 23.9392C0.777721 23.87 1.34229 23.7893 1.71099 23.697C2.10273 23.5817 2.41381 23.3396 2.64425 22.9705C2.87469 22.5785 3.13969 21.9558 3.43926 21.1024L11.1128 0.414842C11.2971 0.345654 11.5161 0.299528 11.7695 0.276466C12.046 0.230339 12.2649 0.207275 12.4263 0.207275L20.1689 21.31C20.4685 22.1172 20.7104 22.6938 20.8948 23.0397C21.1022 23.3857 21.3902 23.6047 21.7589 23.697C22.1276 23.7893 22.7037 23.87 23.4872 23.9392C23.5102 24.1698 23.5102 24.4004 23.4872 24.6311C22.8881 24.6311 22.2083 24.6196 21.4478 24.5965C20.7104 24.5734 20.0306 24.5619 19.4085 24.5619C18.7632 24.5619 18.1526 24.5734 17.5765 24.5965C17.0235 24.6196 16.4243 24.6311 15.7791 24.6311C15.756 24.4004 15.756 24.1698 15.7791 23.9392C16.5856 23.87 17.1156 23.8008 17.3691 23.7316C17.6456 23.6393 17.7839 23.4318 17.7839 23.1089C17.7839 22.9936 17.7608 22.8552 17.7148 22.6938C17.6687 22.5093 17.5996 22.2901 17.5074 22.0365L15.1224 15.3597H6.8958L4.64904 21.6559C4.41861 22.2786 4.30339 22.7284 4.30339 23.0051C4.30339 23.3741 4.47622 23.6047 4.82187 23.697C5.16753 23.7893 5.73208 23.87 6.51558 23.9392C6.53864 24.1698 6.53864 24.4004 6.51558 24.6311C5.93947 24.6311 5.37492 24.6196 4.82187 24.5965C4.29187 24.5734 3.73882 24.5619 3.16273 24.5619C2.70186 24.5619 2.18338 24.5734 1.60729 24.5965C1.05424 24.6196 0.524242 24.6311 0.0172827 24.6311ZM7.27601 14.2873H14.7076L10.9745 3.8743L7.27601 14.2873Z" fill="url(#paint0_linear_288_280)"/>
<path d="M36.8818 3.77081L31.1094 14.0108V21.6216C31.1094 22.3135 31.144 22.8209 31.2131 23.1438C31.3053 23.4436 31.5357 23.6396 31.9044 23.7319C32.2731 23.8011 32.8838 23.8703 33.7364 23.9395C33.7595 24.1701 33.7595 24.4007 33.7364 24.6314C33.3907 24.6314 32.9645 24.6198 32.4575 24.5968C31.9505 24.5968 31.4436 24.5968 30.9366 24.5968C30.4527 24.5737 30.0494 24.5622 29.7268 24.5622C29.4042 24.5622 28.9894 24.5737 28.4825 24.5968C27.9985 24.5968 27.5031 24.5968 26.9961 24.5968C26.4892 24.6198 26.0629 24.6314 25.7172 24.6314C25.6942 24.4007 25.6942 24.1701 25.7172 23.9395C26.5699 23.8703 27.169 23.8011 27.5146 23.7319C27.8833 23.6396 28.1137 23.4667 28.2059 23.213C28.2981 22.9593 28.3442 22.5326 28.3442 21.933V14.253L22.4335 3.59784C22.0187 2.83676 21.6846 2.29477 21.4311 1.97189C21.2007 1.62595 20.9126 1.39532 20.567 1.28C20.2444 1.16469 19.7374 1.08396 19.0461 1.03784C19.023 0.807207 19.023 0.57658 19.0461 0.345947C19.6452 0.345947 20.2905 0.357479 20.9818 0.380542C21.6961 0.403605 22.3644 0.415136 22.9866 0.415136C23.5165 0.415136 24.1042 0.403605 24.7494 0.380542C25.4176 0.357479 26.0514 0.345947 26.6505 0.345947C26.6736 0.57658 26.6736 0.807207 26.6505 1.03784C25.9361 1.0609 25.4292 1.13009 25.1296 1.24541C24.83 1.33766 24.6803 1.51063 24.6803 1.76433C24.6803 1.97189 24.8416 2.36396 25.1642 2.94054L30.5564 12.7308L35.9486 2.94054C36.1099 2.66379 36.2251 2.44469 36.2942 2.28325C36.3864 2.09874 36.4325 1.94883 36.4325 1.83352C36.4325 1.57982 36.2482 1.40685 35.8794 1.3146C35.5338 1.19928 34.9462 1.10703 34.1166 1.03784C34.0936 0.807207 34.0936 0.57658 34.1166 0.345947C34.5314 0.345947 35.0844 0.357479 35.7758 0.380542C36.4671 0.403605 37.0201 0.415136 37.4349 0.415136C37.9649 0.415136 38.4834 0.403605 38.9903 0.380542C39.5203 0.357479 40.0388 0.345947 40.5458 0.345947C40.5688 0.57658 40.5688 0.807207 40.5458 1.03784C39.8545 1.08396 39.3245 1.16469 38.9558 1.28C38.5871 1.39532 38.2645 1.63748 37.9879 2.00649C37.7114 2.3755 37.3427 2.96361 36.8818 3.77081Z" fill="url(#paint1_linear_288_280)"/>
<path d="M35.5656 24.6312C35.5426 24.4005 35.5426 24.1699 35.5656 23.9393C36.3261 23.8701 36.8906 23.7894 37.2593 23.6971C37.6511 23.5818 37.9622 23.3397 38.1926 22.9706C38.4231 22.5786 38.688 21.9559 38.9876 21.1025L46.6611 0.414965C46.8455 0.345776 47.0644 0.29965 47.3179 0.276588C47.5944 0.230461 47.8133 0.207397 47.9746 0.207397L55.7173 21.3101C56.017 22.1173 56.259 22.6939 56.4431 23.0398C56.6505 23.3858 56.9384 23.6049 57.3073 23.6971C57.6762 23.7894 58.2519 23.8701 59.0355 23.9393C59.0588 24.1699 59.0588 24.4005 59.0355 24.6312C58.4366 24.6312 57.7566 24.6197 56.9962 24.5966C56.259 24.5735 55.579 24.562 54.9568 24.562C54.3114 24.562 53.701 24.5735 53.1249 24.5966C52.5718 24.6197 51.9727 24.6312 51.3275 24.6312C51.3044 24.4005 51.3044 24.1699 51.3275 23.9393C52.134 23.8701 52.664 23.8009 52.9175 23.7317C53.194 23.6395 53.3323 23.4319 53.3323 23.109C53.3323 22.9937 53.3092 22.8554 53.2631 22.6939C53.2171 22.5094 53.1479 22.2903 53.0557 22.0366L50.6707 15.3598H42.4442L40.1974 21.6561C39.9669 22.2788 39.8517 22.7285 39.8517 23.0052C39.8517 23.3743 40.0246 23.6049 40.3702 23.6971C40.7159 23.7894 41.2804 23.8701 42.0639 23.9393C42.087 24.1699 42.087 24.4005 42.0639 24.6312C41.4878 24.6312 40.9233 24.6197 40.3702 24.5966C39.8402 24.5735 39.2872 24.562 38.7111 24.562C38.2502 24.562 37.7318 24.5735 37.1556 24.5966C36.6026 24.6197 36.0726 24.6312 35.5656 24.6312ZM42.8244 14.2874H50.2559L46.5229 3.87443L42.8244 14.2874Z" fill="url(#paint2_linear_288_280)"/>
<path d="M79.847 24.7697L63.4285 3.49406V20.9989C63.4285 21.6447 63.4398 22.1405 63.463 22.4865C63.5089 22.8094 63.6126 23.0631 63.7741 23.2476C63.9583 23.409 64.2235 23.5589 64.5691 23.6973C64.9148 23.8126 65.41 23.8934 66.0554 23.9395C66.0781 24.1701 66.0781 24.4007 66.0554 24.6314C65.5483 24.6314 64.9839 24.6198 64.3617 24.5968C63.7622 24.5737 63.2556 24.5622 62.8409 24.5622C62.4261 24.5622 61.9076 24.5737 61.2854 24.5968C60.6859 24.6198 60.1442 24.6314 59.6603 24.6314C59.6376 24.4007 59.6376 24.1701 59.6603 23.9395C60.4672 23.8472 61.0435 23.7434 61.3891 23.6281C61.7348 23.5128 61.9422 23.2937 62.0113 22.9708C62.1031 22.6249 62.1496 22.0714 62.1496 21.3103V4.11676C62.1496 3.2173 62.1031 2.57153 62.0113 2.17946C61.9189 1.76433 61.677 1.48757 61.2854 1.34919C60.9165 1.21081 60.3057 1.0955 59.4535 1.00325C59.4302 0.795678 59.4302 0.57658 59.4535 0.345947C59.9833 0.345947 60.5363 0.357479 61.1126 0.380542C61.7115 0.403605 62.2992 0.415136 62.8754 0.415136C62.9446 0.415136 63.1633 0.415136 63.5322 0.415136C63.9237 0.415136 64.2694 0.403605 64.5691 0.380542L79.9853 20.4108V4.01298C79.9853 3.39027 79.9734 2.90595 79.9507 2.56C79.9275 2.19099 79.8238 1.92577 79.6397 1.76433C79.294 1.37226 78.4412 1.13009 77.0813 1.03784C77.0586 0.807207 77.0586 0.58811 77.0813 0.380542C77.5652 0.380542 78.1647 0.392073 78.8787 0.415136C79.5932 0.415136 80.1581 0.415136 80.5729 0.415136C80.9877 0.415136 81.4943 0.415136 82.0938 0.415136C82.716 0.392073 83.2804 0.380542 83.787 0.380542C83.8102 0.58811 83.8102 0.807207 83.787 1.03784C82.9806 1.13009 82.393 1.24541 82.0247 1.38379C81.679 1.4991 81.4597 1.72973 81.3679 2.07568C81.2988 2.39856 81.2637 2.94054 81.2637 3.70162V24.6314C81.1027 24.6775 80.8721 24.7121 80.5729 24.7351C80.2964 24.7582 80.0544 24.7697 79.847 24.7697Z" fill="url(#paint3_linear_288_280)"/>
<path d="M86.9551 24.493C86.9324 23.755 86.9091 22.9477 86.8859 22.0713C86.8859 21.1719 86.8514 20.2378 86.7822 19.2692C86.8978 19.2461 87.0015 19.2346 87.0933 19.2346C87.2089 19.2346 87.3239 19.2346 87.439 19.2346C87.6928 20.8029 88.3377 22.0022 89.3746 22.8324C90.4348 23.6396 91.6446 24.0432 93.004 24.0432C94.4331 24.0432 95.5273 23.6281 96.2877 22.7978C97.0482 21.9676 97.4284 20.8951 97.4284 19.5805C97.4284 18.5427 97.2096 17.6663 96.7716 16.9513C96.3342 16.2133 95.7233 15.5561 94.9397 14.9795C94.1792 14.3798 93.3151 13.7802 92.3473 13.1805C91.4486 12.6039 90.5731 12.0043 89.7203 11.3816C88.8907 10.7358 88.2113 9.99784 87.6809 9.16757C87.1511 8.3373 86.8859 7.33405 86.8859 6.15784C86.8859 4.9355 87.1857 3.86306 87.7846 2.94054C88.4068 2.01802 89.2483 1.30306 90.3079 0.795676C91.3913 0.265225 92.6124 0 93.9718 0C94.3866 0 94.7555 0.0230627 95.0779 0.0691881C95.4236 0.115315 95.8157 0.161442 96.2531 0.207567C96.6912 0.253694 97.0482 0.288289 97.3247 0.311351C97.6012 0.334414 97.855 0.345945 98.0851 0.345945C98.1316 0.345945 98.212 0.345945 98.3271 0.345945C98.4427 0.345945 98.5809 0.334414 98.7419 0.311351L99.0184 5.22378C98.8801 5.24685 98.7537 5.26991 98.6382 5.29297C98.5463 5.29297 98.4427 5.29297 98.3271 5.29297C98.212 4.55496 98.0046 3.89766 97.7049 3.32108C97.4284 2.7445 97.1059 2.29477 96.7371 1.97189C96.3455 1.62595 95.8616 1.37225 95.2853 1.21081C94.7096 1.04937 94.1447 0.968649 93.5916 0.968649C92.3937 0.968649 91.3913 1.32612 90.5844 2.04108C89.8013 2.73297 89.4092 3.72469 89.4092 5.01622C89.4092 5.96178 89.6285 6.78054 90.0659 7.47243C90.5039 8.14124 91.0916 8.76394 91.8288 9.34054C92.5665 9.89405 93.3961 10.4706 94.3175 11.0703C95.2162 11.6469 96.0922 12.2811 96.9444 12.973C97.7972 13.6418 98.4886 14.4259 99.0184 15.3254C99.5714 16.2018 99.8479 17.2742 99.8479 18.5427C99.8479 19.6728 99.5946 20.7337 99.0875 21.7254C98.5809 22.6941 97.8086 23.4897 96.7716 24.1124C95.7347 24.7121 94.4212 25.0119 92.8312 25.0119C92.4855 25.0119 92.094 24.9888 91.6559 24.9427C91.2412 24.8966 90.619 24.8274 89.7894 24.7351C89.0981 24.6429 88.5451 24.5852 88.1303 24.5622C87.7387 24.5161 87.3472 24.493 86.9551 24.493Z" fill="url(#paint4_linear_288_280)"/>
<path d="M103.42 24.6314C103.397 24.4007 103.397 24.1701 103.42 23.9395C104.203 23.8703 104.768 23.8011 105.113 23.7319C105.459 23.6627 105.678 23.5012 105.77 23.2476C105.863 22.9708 105.908 22.5326 105.908 21.933V3.35568C105.908 2.64072 105.863 2.13334 105.77 1.83352C105.678 1.53369 105.459 1.33766 105.113 1.24541C104.768 1.15315 104.203 1.08396 103.42 1.03784C103.397 0.807207 103.397 0.57658 103.42 0.345947C103.765 0.345947 104.18 0.357479 104.664 0.380542C105.148 0.380542 105.632 0.392073 106.116 0.415136C106.6 0.415136 106.991 0.415136 107.291 0.415136C107.591 0.415136 107.982 0.415136 108.466 0.415136C108.95 0.392073 109.434 0.380542 109.918 0.380542C110.425 0.357479 110.828 0.345947 111.128 0.345947C111.151 0.57658 111.151 0.807207 111.128 1.03784C110.344 1.08396 109.78 1.15315 109.434 1.24541C109.088 1.33766 108.87 1.51063 108.777 1.76433C108.708 2.01802 108.674 2.44469 108.674 3.04433V11.4508H122.465V3.35568C122.465 2.64072 122.419 2.13334 122.327 1.83352C122.258 1.53369 122.05 1.33766 121.705 1.24541C121.382 1.15315 120.829 1.08396 120.046 1.03784C120.022 0.807207 120.022 0.57658 120.046 0.345947C120.368 0.345947 120.76 0.357479 121.221 0.380542C121.705 0.380542 122.189 0.392073 122.673 0.415136C123.18 0.415136 123.583 0.415136 123.882 0.415136C124.366 0.415136 125 0.403605 125.784 0.380542C126.567 0.357479 127.212 0.345947 127.719 0.345947C127.742 0.57658 127.742 0.807207 127.719 1.03784C126.936 1.08396 126.371 1.15315 126.026 1.24541C125.68 1.33766 125.461 1.51063 125.369 1.76433C125.276 2.01802 125.231 2.44469 125.231 3.04433V21.6216C125.231 22.3135 125.265 22.8094 125.334 23.1092C125.427 23.409 125.645 23.605 125.991 23.6973C126.337 23.7896 126.913 23.8703 127.719 23.9395C127.742 24.1701 127.742 24.4007 127.719 24.6314C127.212 24.6314 126.555 24.6198 125.749 24.5968C124.943 24.5737 124.309 24.5622 123.848 24.5622C123.387 24.5622 122.765 24.5737 121.981 24.5968C121.221 24.6198 120.587 24.6314 120.08 24.6314C120.057 24.4007 120.057 24.1701 120.08 23.9395C120.841 23.8703 121.382 23.8011 121.705 23.7319C122.05 23.6627 122.258 23.5012 122.327 23.2476C122.419 22.9708 122.465 22.5326 122.465 21.933V12.5578H108.674V21.6216C108.674 22.3135 108.708 22.8209 108.777 23.1438C108.87 23.4436 109.088 23.6396 109.434 23.7319C109.78 23.8011 110.344 23.8703 111.128 23.9395C111.151 24.1701 111.151 24.4007 111.128 24.6314C110.805 24.6314 110.391 24.6198 109.883 24.5968C109.4 24.5968 108.916 24.5968 108.432 24.5968C107.971 24.5737 107.579 24.5622 107.257 24.5622C106.957 24.5622 106.565 24.5737 106.081 24.5968C105.597 24.5968 105.113 24.5968 104.63 24.5968C104.169 24.6198 103.765 24.6314 103.42 24.6314Z" fill="url(#paint5_linear_288_280)"/>
<path d="M127.736 29.3362H0V39.614H127.736V29.3362Z" fill="#FCCD91"/>
<path d="M0 33.9347H20.6907C20.8696 33.9347 21.0147 34.0799 21.0147 34.259V34.6915C21.0147 34.8705 20.8696 35.0158 20.6907 35.0158H0V33.9347Z" fill="#01503A"/>
<path d="M22.0996 37.8854C22.0931 37.8206 22.0931 37.7557 22.0996 37.6909C22.3199 37.6714 22.4787 37.6519 22.5759 37.6325C22.6732 37.6065 22.7315 37.5579 22.7509 37.4865C22.7769 37.4152 22.7898 37.2952 22.7898 37.1265V31.9017C22.7898 31.7071 22.7769 31.5676 22.7509 31.4833C22.725 31.399 22.6634 31.3438 22.5662 31.3179C22.4755 31.2854 22.3199 31.2627 22.0996 31.2498C22.0931 31.1849 22.0931 31.12 22.0996 31.0552C22.2616 31.0552 22.3977 31.0584 22.5079 31.0649C22.6245 31.0649 22.7574 31.0681 22.9065 31.0746C23.062 31.0746 23.2726 31.0746 23.5384 31.0746C23.8171 31.0746 24.099 31.0746 24.3841 31.0746C24.6693 31.0681 24.935 31.0649 25.1813 31.0649C25.4276 31.0649 25.6317 31.0649 25.7938 31.0649C25.9558 31.0584 26.0498 31.0552 26.0757 31.0552C26.1146 31.4249 26.1697 31.8173 26.241 32.2325C26.1697 32.239 26.1049 32.239 26.0465 32.2325C25.9947 32.0573 25.9396 31.9179 25.8813 31.8141C25.8229 31.7038 25.7614 31.6195 25.6965 31.5611C25.6123 31.4833 25.5054 31.4314 25.3757 31.4054C25.2526 31.3795 25.0971 31.3665 24.9091 31.3665H23.5675V34.2076H24.5883C24.8151 34.2076 24.9836 34.1946 25.0938 34.1687C25.204 34.1427 25.2818 34.0779 25.3271 33.9741C25.3725 33.8638 25.4114 33.6887 25.4438 33.4487C25.5151 33.4422 25.5831 33.4422 25.6479 33.4487C25.6479 33.4941 25.6447 33.6076 25.6382 33.7892C25.6317 33.9644 25.6285 34.1622 25.6285 34.3827C25.6285 34.5838 25.6317 34.7752 25.6382 34.9568C25.6447 35.1319 25.6479 35.2487 25.6479 35.3071C25.5896 35.3136 25.5216 35.3136 25.4438 35.3071C25.4179 35.0476 25.3822 34.866 25.3369 34.7622C25.2915 34.6519 25.217 34.5838 25.1133 34.5579C25.0096 34.5319 24.854 34.519 24.6466 34.519H23.5675V37.5741H24.8605C25.0938 37.5741 25.2915 37.5611 25.4535 37.5352C25.622 37.5027 25.7516 37.4411 25.8424 37.3503C25.9072 37.2854 25.9752 37.1817 26.0465 37.039C26.1243 36.8963 26.2021 36.7276 26.2798 36.533C26.3382 36.5265 26.3997 36.5265 26.4645 36.533C26.4127 36.7925 26.3673 37.0422 26.3284 37.2822C26.296 37.5222 26.2701 37.72 26.2507 37.8757C26.0368 37.8757 25.7905 37.8757 25.5118 37.8757C25.2332 37.8757 24.9512 37.8757 24.6661 37.8757C24.3809 37.8692 24.1217 37.866 23.8883 37.866C23.655 37.866 23.4768 37.866 23.3537 37.866C23.1333 37.866 22.9518 37.8692 22.8093 37.8757C22.6732 37.8757 22.5533 37.8757 22.4496 37.8757C22.3459 37.8822 22.2292 37.8854 22.0996 37.8854Z" fill="#01503A"/>
<path d="M28.0141 37.8854C28.0077 37.8206 28.0077 37.7557 28.0141 37.6909C28.2345 37.6714 28.3933 37.6519 28.4905 37.6325C28.5877 37.6065 28.646 37.5579 28.6655 37.4865C28.6914 37.4152 28.7044 37.2952 28.7044 37.1265V31.9017C28.7044 31.7071 28.6914 31.5676 28.6655 31.4833C28.6396 31.399 28.578 31.3438 28.4808 31.3179C28.39 31.2854 28.2345 31.2627 28.0141 31.2498C28.0077 31.1849 28.0077 31.12 28.0141 31.0552C28.1632 31.0552 28.3479 31.0584 28.5683 31.0649C28.7886 31.0714 28.9636 31.0746 29.0932 31.0746C29.1775 31.0746 29.2877 31.0746 29.4238 31.0746C29.5599 31.0681 29.696 31.0649 29.8321 31.0649C29.9746 31.0584 30.0913 31.0552 30.182 31.0552C30.1885 31.12 30.1885 31.1849 30.182 31.2498C29.9552 31.2692 29.7932 31.2887 29.696 31.3081C29.5987 31.3276 29.5372 31.373 29.5113 31.4444C29.4918 31.5157 29.4821 31.639 29.4821 31.8141V37C29.4821 37.1622 29.4821 37.2919 29.4821 37.3892C29.4821 37.48 29.4853 37.5417 29.4918 37.5741H30.9112C31.138 37.5741 31.3227 37.5579 31.4653 37.5254C31.6079 37.493 31.7213 37.4281 31.8055 37.3309C31.8768 37.253 31.9514 37.1395 32.0291 36.9903C32.1134 36.8346 32.1879 36.6465 32.2527 36.426C32.3111 36.4195 32.3694 36.4195 32.4277 36.426C32.3759 36.7179 32.3273 36.9936 32.2819 37.253C32.243 37.5125 32.2106 37.72 32.1847 37.8757C31.8801 37.8757 31.5463 37.8757 31.1834 37.8757C30.8269 37.8692 30.4672 37.866 30.1043 37.866C29.7478 37.866 29.4173 37.866 29.1127 37.866C29.0219 37.866 28.9085 37.8692 28.7724 37.8757C28.6363 37.8757 28.5002 37.8757 28.3641 37.8757C28.228 37.8822 28.1114 37.8854 28.0141 37.8854Z" fill="#01503A"/>
<path d="M33.4922 37.8854C33.4857 37.8206 33.4857 37.7557 33.4922 37.6909C33.7125 37.6714 33.8713 37.6519 33.9685 37.6325C34.0657 37.6065 34.1241 37.5579 34.1435 37.4865C34.1694 37.4152 34.1824 37.2952 34.1824 37.1265V31.9017C34.1824 31.7071 34.1694 31.5676 34.1435 31.4833C34.1176 31.399 34.056 31.3438 33.9588 31.3179C33.8681 31.2854 33.7125 31.2627 33.4922 31.2498C33.4857 31.1849 33.4857 31.12 33.4922 31.0552C33.6542 31.0552 33.7903 31.0584 33.9005 31.0649C34.0171 31.0649 34.15 31.0681 34.2991 31.0746C34.4546 31.0746 34.6652 31.0746 34.931 31.0746C35.2096 31.0746 35.4916 31.0746 35.7767 31.0746C36.0619 31.0681 36.3276 31.0649 36.5739 31.0649C36.8202 31.0649 37.0243 31.0649 37.1863 31.0649C37.3484 31.0584 37.4423 31.0552 37.4683 31.0552C37.5072 31.4249 37.5622 31.8173 37.6335 32.2325C37.5622 32.239 37.4974 32.239 37.4391 32.2325C37.3873 32.0573 37.3322 31.9179 37.2738 31.8141C37.2155 31.7038 37.1539 31.6195 37.0891 31.5611C37.0049 31.4833 36.8979 31.4314 36.7683 31.4054C36.6452 31.3795 36.4896 31.3665 36.3017 31.3665H34.9601V34.2076H35.9809C36.2077 34.2076 36.3762 34.1946 36.4864 34.1687C36.5966 34.1427 36.6743 34.0779 36.7197 33.9741C36.7651 33.8638 36.804 33.6887 36.8364 33.4487C36.9077 33.4422 36.9757 33.4422 37.0405 33.4487C37.0405 33.4941 37.0373 33.6076 37.0308 33.7892C37.0243 33.9644 37.0211 34.1622 37.0211 34.3827C37.0211 34.5838 37.0243 34.7752 37.0308 34.9568C37.0373 35.1319 37.0405 35.2487 37.0405 35.3071C36.9822 35.3136 36.9141 35.3136 36.8364 35.3071C36.8104 35.0476 36.7748 34.866 36.7294 34.7622C36.6841 34.6519 36.6095 34.5838 36.5058 34.5579C36.4021 34.5319 36.2466 34.519 36.0392 34.519H34.9601V37.5741H36.2531C36.4864 37.5741 36.6841 37.5611 36.8461 37.5352C37.0146 37.5027 37.1442 37.4411 37.235 37.3503C37.2998 37.2854 37.3678 37.1817 37.4391 37.039C37.5169 36.8963 37.5946 36.7276 37.6724 36.533C37.7307 36.5265 37.7923 36.5265 37.8571 36.533C37.8053 36.7925 37.7599 37.0422 37.721 37.2822C37.6886 37.5222 37.6627 37.72 37.6433 37.8757C37.4294 37.8757 37.1831 37.8757 36.9044 37.8757C36.6257 37.8757 36.3438 37.8757 36.0586 37.8757C35.7735 37.8692 35.5142 37.866 35.2809 37.866C35.0476 37.866 34.8694 37.866 34.7462 37.866C34.5259 37.866 34.3444 37.8692 34.2018 37.8757C34.0657 37.8757 33.9458 37.8757 33.8421 37.8757C33.7384 37.8822 33.6218 37.8854 33.4922 37.8854Z" fill="#01503A"/>
<path d="M45.1524 31.0552C45.1589 31.12 45.1589 31.1849 45.1524 31.2498C44.9191 31.2627 44.7441 31.2854 44.6274 31.3179C44.5172 31.3503 44.4298 31.4217 44.3649 31.5319C44.3001 31.6357 44.2224 31.8076 44.1316 32.0476L41.9443 37.866C41.8989 37.8854 41.8373 37.8984 41.7596 37.9049C41.6883 37.9179 41.6267 37.9244 41.5749 37.9244L39.3681 31.9892C39.2838 31.7622 39.2125 31.6 39.1542 31.5027C39.0959 31.4054 39.0116 31.3438 38.9015 31.3179C38.7978 31.2854 38.626 31.2627 38.3862 31.2498C38.3797 31.1849 38.3797 31.12 38.3862 31.0552C38.5547 31.0552 38.7524 31.0584 38.9792 31.0649C39.2061 31.0714 39.407 31.0746 39.582 31.0746C39.7634 31.0746 39.9417 31.0714 40.1166 31.0649C40.2981 31.0584 40.4796 31.0552 40.661 31.0552C40.6675 31.12 40.6675 31.1849 40.661 31.2498C40.4018 31.2692 40.2333 31.2919 40.1555 31.3179C40.0778 31.3373 40.0389 31.3925 40.0389 31.4833C40.0389 31.5157 40.0453 31.5579 40.0583 31.6098C40.0713 31.6552 40.0907 31.7136 40.1166 31.7849L41.9832 36.893L43.7914 31.8919C43.8562 31.7168 43.8886 31.5903 43.8886 31.5125C43.8886 31.4087 43.8367 31.3438 43.733 31.3179C43.6358 31.2919 43.4608 31.2692 43.2081 31.2498C43.2016 31.1849 43.2016 31.12 43.2081 31.0552C43.3701 31.0552 43.5354 31.0584 43.7039 31.0649C43.8789 31.0714 44.0474 31.0746 44.2094 31.0746C44.339 31.0746 44.4913 31.0714 44.6663 31.0649C44.8478 31.0584 45.0098 31.0552 45.1524 31.0552Z" fill="#01503A"/>
<path d="M44.1772 37.8854C44.1707 37.8206 44.1707 37.7557 44.1772 37.6908C44.3911 37.6714 44.5499 37.6487 44.6536 37.6227C44.7638 37.5903 44.8512 37.5222 44.9161 37.4184C44.9809 37.3081 45.0554 37.133 45.1397 36.893L47.2978 31.0746C47.3497 31.0552 47.4113 31.0422 47.4825 31.0357C47.5603 31.0227 47.6219 31.0162 47.6672 31.0162L49.8449 36.9514C49.9291 37.1784 49.9972 37.3406 50.049 37.4379C50.1074 37.5352 50.1884 37.5968 50.2921 37.6227C50.3958 37.6487 50.5578 37.6714 50.7781 37.6908C50.7846 37.7557 50.7846 37.8206 50.7781 37.8854C50.6096 37.8854 50.4184 37.8822 50.2046 37.8757C49.9972 37.8692 49.806 37.866 49.631 37.866C49.4495 37.866 49.2778 37.8692 49.1158 37.8757C48.9602 37.8822 48.7917 37.8854 48.6102 37.8854C48.6038 37.8206 48.6038 37.7557 48.6102 37.6908C48.8371 37.6714 48.9861 37.6519 49.0574 37.6325C49.1352 37.6065 49.1741 37.5481 49.1741 37.4573C49.1741 37.4249 49.1676 37.386 49.1546 37.3406C49.1417 37.2887 49.1222 37.227 49.0963 37.1557L48.4255 35.2779H46.1118L45.4799 37.0487C45.4151 37.2238 45.3827 37.3503 45.3827 37.4281C45.3827 37.5319 45.4313 37.5968 45.5285 37.6227C45.6257 37.6487 45.7845 37.6714 46.0049 37.6908C46.0114 37.7557 46.0114 37.8206 46.0049 37.8854C45.8428 37.8854 45.6841 37.8822 45.5285 37.8757C45.3795 37.8692 45.2239 37.866 45.0619 37.866C44.9323 37.866 44.7864 37.8692 44.6244 37.8757C44.4689 37.8822 44.3198 37.8854 44.1772 37.8854ZM46.2187 34.9762H48.3089L47.2589 32.0476L46.2187 34.9762Z" fill="#01503A"/>
<path d="M52.2013 37.8854C52.1948 37.8205 52.1948 37.7557 52.2013 37.6908C52.4346 37.6714 52.5999 37.6519 52.6971 37.6324C52.8008 37.613 52.8623 37.5676 52.8818 37.4962C52.9077 37.4184 52.9207 37.2951 52.9207 37.1265V31.3568H51.686C51.4268 31.3568 51.2324 31.386 51.1027 31.4443C50.9731 31.5027 50.8727 31.6065 50.8014 31.7557C50.7301 31.8984 50.6555 32.1092 50.5778 32.3881C50.5194 32.3946 50.4579 32.3946 50.3931 32.3881C50.4255 32.1611 50.4546 31.9308 50.4806 31.6973C50.5065 31.4573 50.5292 31.24 50.5486 31.0454C50.8532 31.0584 51.2194 31.0681 51.6471 31.0746C52.0749 31.0746 52.6323 31.0746 53.3192 31.0746C54.0193 31.0746 54.5799 31.0746 55.0012 31.0746C55.4224 31.0681 55.7854 31.0584 56.09 31.0454C56.1029 31.2335 56.1224 31.4476 56.1483 31.6876C56.1742 31.9276 56.2002 32.1611 56.2261 32.3881C56.1548 32.3946 56.09 32.3946 56.0317 32.3881C55.9474 32.1092 55.8696 31.8951 55.7983 31.746C55.727 31.5968 55.6266 31.4962 55.497 31.4443C55.3738 31.386 55.1826 31.3568 54.9234 31.3568H53.6984V37.0389C53.6984 37.2335 53.7081 37.3762 53.7275 37.467C53.7535 37.5514 53.815 37.6065 53.9123 37.6324C54.0161 37.6519 54.1846 37.6714 54.4179 37.6908C54.4244 37.7557 54.4244 37.8205 54.4179 37.8854C54.3207 37.8854 54.2008 37.8822 54.0582 37.8757C53.922 37.8757 53.7859 37.8757 53.6498 37.8757C53.5137 37.8692 53.4003 37.866 53.3095 37.866C53.1734 37.866 52.992 37.8692 52.7651 37.8757C52.5383 37.8822 52.3503 37.8854 52.2013 37.8854Z" fill="#01503A"/>
<path d="M58.7984 31.8141V37.039C58.7984 37.2336 58.8081 37.3763 58.8276 37.4671C58.847 37.5514 58.9053 37.6065 59.0026 37.6325C59.0998 37.6519 59.265 37.6714 59.4984 37.6909C59.5048 37.7557 59.5048 37.8206 59.4984 37.8854C59.3558 37.8854 59.1711 37.8822 58.9442 37.8757C58.7174 37.8692 58.5392 37.866 58.4095 37.866C58.267 37.866 58.0855 37.8692 57.8651 37.8757C57.6448 37.8822 57.4601 37.8854 57.311 37.8854C57.3045 37.8206 57.3045 37.7557 57.311 37.6909C57.5378 37.6714 57.6999 37.6519 57.7971 37.6325C57.9008 37.613 57.9624 37.5676 57.9818 37.4963C58.0077 37.4184 58.0207 37.2952 58.0207 37.1265V31.9017C58.0207 31.7071 58.0077 31.5676 57.9818 31.4833C57.9559 31.399 57.8943 31.3438 57.7971 31.3179C57.6999 31.2854 57.5378 31.2627 57.311 31.2498C57.3045 31.1849 57.3045 31.12 57.311 31.0552C57.4082 31.0552 57.5249 31.0584 57.661 31.0649C57.8036 31.0649 57.9429 31.0681 58.079 31.0746C58.2151 31.0746 58.3285 31.0746 58.4193 31.0746C58.51 31.0746 58.6202 31.0746 58.7498 31.0746C58.8859 31.0681 59.022 31.0649 59.1581 31.0649C59.2942 31.0584 59.4076 31.0552 59.4984 31.0552C59.5048 31.12 59.5048 31.1849 59.4984 31.2498C59.2715 31.2692 59.1095 31.2887 59.0123 31.3081C58.9151 31.3276 58.8535 31.373 58.8276 31.4444C58.8081 31.5157 58.7984 31.639 58.7984 31.8141Z" fill="#01503A"/>
<path d="M66.8885 37.9244L62.2708 31.9406V36.8638C62.2708 37.0454 62.274 37.1849 62.2805 37.2822C62.2935 37.373 62.3226 37.4444 62.368 37.4963C62.4198 37.5417 62.4944 37.5838 62.5916 37.6227C62.6888 37.6552 62.8282 37.6779 63.0096 37.6909C63.0161 37.7557 63.0161 37.8206 63.0096 37.8854C62.867 37.8854 62.7083 37.8822 62.5333 37.8757C62.3648 37.8692 62.2222 37.866 62.1055 37.866C61.9889 37.866 61.843 37.8692 61.6681 37.8757C61.4995 37.8822 61.3472 37.8854 61.2111 37.8854C61.2047 37.8206 61.2047 37.7557 61.2111 37.6909C61.438 37.6649 61.6 37.6357 61.6972 37.6033C61.7944 37.5709 61.8528 37.5092 61.8722 37.4184C61.8981 37.3211 61.9111 37.1654 61.9111 36.9514V32.1157C61.9111 31.8627 61.8981 31.6811 61.8722 31.5709C61.8463 31.4541 61.7782 31.3763 61.6681 31.3373C61.5644 31.2984 61.3926 31.266 61.1528 31.24C61.1463 31.1817 61.1463 31.12 61.1528 31.0552C61.3019 31.0552 61.4574 31.0584 61.6194 31.0649C61.788 31.0714 61.9532 31.0746 62.1152 31.0746C62.1347 31.0746 62.1963 31.0746 62.2999 31.0746C62.4101 31.0746 62.5073 31.0714 62.5916 31.0649L66.9274 36.6984V32.0865C66.9274 31.9114 66.9242 31.7752 66.9177 31.6779C66.9112 31.5741 66.882 31.4995 66.8302 31.4541C66.733 31.3438 66.4932 31.2757 66.1108 31.2498C66.1043 31.1849 66.1043 31.1233 66.1108 31.0649C66.2469 31.0649 66.4154 31.0681 66.6163 31.0746C66.8172 31.0746 66.976 31.0746 67.0927 31.0746C67.2093 31.0746 67.3519 31.0746 67.5204 31.0746C67.6954 31.0681 67.8542 31.0649 67.9968 31.0649C68.0032 31.1233 68.0032 31.1849 67.9968 31.2498C67.7699 31.2757 67.6047 31.3081 67.501 31.3471C67.4037 31.3795 67.3422 31.4444 67.3163 31.5417C67.2968 31.6325 67.2871 31.7849 67.2871 31.999V37.8854C67.2417 37.8984 67.1769 37.9082 67.0927 37.9146C67.0149 37.9211 66.9468 37.9244 66.8885 37.9244Z" fill="#01503A"/>
<path d="M72.9903 31.24C72.4394 31.24 71.9792 31.3244 71.6098 31.493C71.2404 31.6617 70.9455 31.8952 70.7251 32.1936C70.5048 32.4855 70.346 32.8228 70.2488 33.2055C70.1516 33.5817 70.103 33.9773 70.103 34.3925C70.103 35.0476 70.2099 35.6249 70.4238 36.1244C70.6441 36.6173 70.9747 37.0033 71.4154 37.2822C71.8626 37.5546 72.4199 37.6909 73.0875 37.6909C73.3013 37.6909 73.5379 37.6779 73.7971 37.6519C74.0564 37.6195 74.3059 37.5741 74.5457 37.5157V35.5211C74.5457 35.3265 74.5327 35.1871 74.5068 35.1028C74.4809 35.0184 74.4128 34.9633 74.3027 34.9373C74.1925 34.9114 74.0143 34.8887 73.768 34.8692C73.7615 34.8044 73.7615 34.7428 73.768 34.6844C73.8652 34.6844 73.9851 34.6876 74.1277 34.6941C74.2703 34.6941 74.4128 34.6973 74.5554 34.7038C74.698 34.7038 74.8179 34.7038 74.9151 34.7038C75.0123 34.7038 75.1257 34.7038 75.2554 34.7038C75.3915 34.6973 75.5179 34.6941 75.6345 34.6941C75.7577 34.6876 75.8484 34.6844 75.9067 34.6844C75.9132 34.7428 75.9132 34.8044 75.9067 34.8692C75.7123 34.8887 75.5729 34.9114 75.4887 34.9373C75.4044 34.9633 75.3526 35.0119 75.3331 35.0833C75.3137 35.1546 75.304 35.2746 75.304 35.4433V36.7568C75.304 36.9773 75.3072 37.1687 75.3137 37.3309C75.3267 37.4865 75.3364 37.5968 75.3429 37.6617C75.0253 37.7655 74.6624 37.8465 74.2541 37.9049C73.8457 37.9633 73.4601 37.9925 73.0972 37.9925C72.313 37.9925 71.6292 37.8595 71.046 37.5936C70.4691 37.3211 70.022 36.9287 69.7044 36.4163C69.3868 35.8973 69.228 35.2682 69.228 34.5287C69.228 33.8087 69.3771 33.1828 69.6752 32.6509C69.9798 32.1125 70.4141 31.6973 70.9779 31.4055C71.5418 31.1071 72.2158 30.9579 73 30.9579C73.2203 30.9579 73.4439 30.9709 73.6708 30.9968C73.9041 31.0163 74.1698 31.0519 74.4679 31.1038C74.5781 31.1233 74.685 31.1428 74.7887 31.1622C74.8924 31.1817 75.0026 31.1914 75.1193 31.1914C75.1387 31.1914 75.1582 31.1914 75.1776 31.1914C75.2035 31.1914 75.2359 31.1882 75.2748 31.1817C75.2813 31.3892 75.291 31.6422 75.304 31.9406C75.3234 32.239 75.3396 32.5082 75.3526 32.7482C75.3137 32.7546 75.2813 32.7611 75.2554 32.7676C75.2294 32.7676 75.2003 32.7676 75.1679 32.7676C75.0966 32.2876 74.8827 31.9146 74.5263 31.6487C74.1763 31.3763 73.6643 31.24 72.9903 31.24Z" fill="#01503A"/>
<path d="M80.2485 37.8854C80.242 37.8206 80.242 37.7557 80.2485 37.6909C80.4689 37.6714 80.6276 37.6519 80.7249 37.6325C80.8221 37.6065 80.8804 37.5579 80.8999 37.4865C80.9258 37.4152 80.9387 37.2952 80.9387 37.1265V31.9017C80.9387 31.7071 80.9258 31.5676 80.8999 31.4833C80.8739 31.399 80.8124 31.3438 80.7151 31.3179C80.6244 31.2854 80.4689 31.2627 80.2485 31.2498C80.242 31.1849 80.242 31.12 80.2485 31.0552C80.3976 31.0552 80.5823 31.0584 80.8026 31.0649C81.023 31.0714 81.198 31.0746 81.3276 31.0746C81.4118 31.0746 81.522 31.0746 81.6581 31.0746C81.7942 31.0681 81.9303 31.0649 82.0664 31.0649C82.209 31.0584 82.3257 31.0552 82.4164 31.0552C82.4229 31.12 82.4229 31.1849 82.4164 31.2498C82.1896 31.2692 82.0276 31.2887 81.9303 31.3081C81.8331 31.3276 81.7715 31.373 81.7456 31.4444C81.7262 31.5157 81.7165 31.639 81.7165 31.8141V37C81.7165 37.1622 81.7165 37.2919 81.7165 37.3892C81.7165 37.48 81.7197 37.5417 81.7262 37.5741H83.1455C83.3724 37.5741 83.5571 37.5579 83.6997 37.5254C83.8422 37.493 83.9556 37.4281 84.0399 37.3309C84.1112 37.253 84.1857 37.1395 84.2635 36.9903C84.3478 36.8346 84.4223 36.6465 84.4871 36.426C84.5454 36.4195 84.6038 36.4195 84.6621 36.426C84.6102 36.7179 84.5616 36.9936 84.5163 37.253C84.4774 37.5125 84.445 37.72 84.419 37.8757C84.1144 37.8757 83.7807 37.8757 83.4177 37.8757C83.0613 37.8692 82.7016 37.866 82.3386 37.866C81.9822 37.866 81.6517 37.866 81.347 37.866C81.2563 37.866 81.1429 37.8692 81.0068 37.8757C80.8707 37.8757 80.7346 37.8757 80.5985 37.8757C80.4624 37.8822 80.3457 37.8854 80.2485 37.8854Z" fill="#01503A"/>
<path d="M87.1944 31.8141V37.039C87.1944 37.2336 87.2041 37.3763 87.2236 37.4671C87.243 37.5514 87.3013 37.6065 87.3986 37.6325C87.4958 37.6519 87.661 37.6714 87.8944 37.6909C87.9008 37.7557 87.9008 37.8206 87.8944 37.8854C87.7518 37.8854 87.5671 37.8822 87.3402 37.8757C87.1134 37.8692 86.9352 37.866 86.8055 37.866C86.663 37.866 86.4815 37.8692 86.2611 37.8757C86.0408 37.8822 85.8561 37.8854 85.707 37.8854C85.7005 37.8206 85.7005 37.7557 85.707 37.6909C85.9338 37.6714 86.0959 37.6519 86.1931 37.6325C86.2968 37.613 86.3584 37.5676 86.3778 37.4963C86.4037 37.4184 86.4167 37.2952 86.4167 37.1265V31.9017C86.4167 31.7071 86.4037 31.5676 86.3778 31.4833C86.3519 31.399 86.2903 31.3438 86.1931 31.3179C86.0959 31.2854 85.9338 31.2627 85.707 31.2498C85.7005 31.1849 85.7005 31.12 85.707 31.0552C85.8042 31.0552 85.9209 31.0584 86.057 31.0649C86.1996 31.0649 86.3389 31.0681 86.475 31.0746C86.6111 31.0746 86.7245 31.0746 86.8153 31.0746C86.906 31.0746 87.0162 31.0746 87.1458 31.0746C87.2819 31.0681 87.418 31.0649 87.5541 31.0649C87.6902 31.0584 87.8036 31.0552 87.8944 31.0552C87.9008 31.12 87.9008 31.1849 87.8944 31.2498C87.6675 31.2692 87.5055 31.2887 87.4083 31.3081C87.3111 31.3276 87.2495 31.373 87.2236 31.4444C87.2041 31.5157 87.1944 31.639 87.1944 31.8141Z" fill="#01503A"/>
<path d="M95.459 31.0552C95.4655 31.12 95.4655 31.1849 95.459 31.2498C95.2257 31.2627 95.0507 31.2854 94.9341 31.3179C94.8239 31.3503 94.7364 31.4217 94.6716 31.5319C94.6068 31.6357 94.529 31.8076 94.4383 32.0476L92.2509 37.866C92.2056 37.8854 92.144 37.8984 92.0662 37.9049C91.9949 37.9179 91.9333 37.9244 91.8815 37.9244L89.6747 31.9892C89.5905 31.7622 89.5192 31.6 89.4608 31.5027C89.4025 31.4054 89.3183 31.3438 89.2081 31.3179C89.1044 31.2854 88.9326 31.2627 88.6928 31.2498C88.6864 31.1849 88.6864 31.12 88.6928 31.0552C88.8614 31.0552 89.059 31.0584 89.2859 31.0649C89.5127 31.0714 89.7136 31.0746 89.8886 31.0746C90.0701 31.0746 90.2483 31.0714 90.4233 31.0649C90.6047 31.0584 90.7862 31.0552 90.9677 31.0552C90.9742 31.12 90.9742 31.1849 90.9677 31.2498C90.7084 31.2692 90.5399 31.2919 90.4622 31.3179C90.3844 31.3373 90.3455 31.3925 90.3455 31.4833C90.3455 31.5157 90.352 31.5579 90.3649 31.6098C90.3779 31.6552 90.3974 31.7136 90.4233 31.7849L92.2898 36.893L94.098 31.8919C94.1628 31.7168 94.1952 31.5903 94.1952 31.5125C94.1952 31.4087 94.1434 31.3438 94.0397 31.3179C93.9425 31.2919 93.7675 31.2692 93.5147 31.2498C93.5082 31.1849 93.5082 31.12 93.5147 31.0552C93.6767 31.0552 93.842 31.0584 94.0105 31.0649C94.1855 31.0714 94.354 31.0746 94.516 31.0746C94.6457 31.0746 94.798 31.0714 94.973 31.0649C95.1544 31.0584 95.3164 31.0552 95.459 31.0552Z" fill="#01503A"/>
<path d="M96.1885 37.8854C96.182 37.8206 96.182 37.7557 96.1885 37.6909C96.4088 37.6714 96.5676 37.6519 96.6648 37.6325C96.762 37.6065 96.8203 37.5579 96.8398 37.4865C96.8657 37.4152 96.8787 37.2952 96.8787 37.1265V31.9017C96.8787 31.7071 96.8657 31.5676 96.8398 31.4833C96.8139 31.399 96.7523 31.3438 96.6551 31.3179C96.5644 31.2854 96.4088 31.2627 96.1885 31.2498C96.182 31.1849 96.182 31.12 96.1885 31.0552C96.3505 31.0552 96.4866 31.0584 96.5968 31.0649C96.7134 31.0649 96.8463 31.0681 96.9953 31.0746C97.1509 31.0746 97.3615 31.0746 97.6272 31.0746C97.9059 31.0746 98.1878 31.0746 98.473 31.0746C98.7582 31.0681 99.0239 31.0649 99.2702 31.0649C99.5165 31.0649 99.7206 31.0649 99.8826 31.0649C100.045 31.0584 100.139 31.0552 100.165 31.0552C100.203 31.4249 100.259 31.8173 100.33 32.2325C100.259 32.239 100.194 32.239 100.135 32.2325C100.084 32.0573 100.028 31.9179 99.9701 31.8141C99.9118 31.7038 99.8502 31.6195 99.7854 31.5611C99.7012 31.4833 99.5942 31.4314 99.4646 31.4054C99.3415 31.3795 99.1859 31.3665 98.998 31.3665H97.6564V34.2076H98.6772C98.904 34.2076 99.0725 34.1946 99.1827 34.1687C99.2929 34.1427 99.3706 34.0779 99.416 33.9741C99.4614 33.8638 99.5003 33.6887 99.5327 33.4487C99.6039 33.4422 99.672 33.4422 99.7368 33.4487C99.7368 33.4941 99.7336 33.6076 99.7271 33.7892C99.7206 33.9644 99.7174 34.1622 99.7174 34.3827C99.7174 34.5838 99.7206 34.7752 99.7271 34.9568C99.7336 35.1319 99.7368 35.2487 99.7368 35.3071C99.6785 35.3136 99.6104 35.3136 99.5327 35.3071C99.5067 35.0476 99.4711 34.866 99.4257 34.7622C99.3804 34.6519 99.3058 34.5838 99.2021 34.5579C99.0984 34.5319 98.9429 34.519 98.7355 34.519H97.6564V37.5741H98.9494C99.1827 37.5741 99.3804 37.5611 99.5424 37.5352C99.7109 37.5027 99.8405 37.4411 99.9312 37.3503C99.9961 37.2854 100.064 37.1817 100.135 37.039C100.213 36.8963 100.291 36.7276 100.369 36.533C100.427 36.5265 100.489 36.5265 100.553 36.533C100.502 36.7925 100.456 37.0422 100.417 37.2822C100.385 37.5222 100.359 37.72 100.34 37.8757C100.126 37.8757 99.8794 37.8757 99.6007 37.8757C99.322 37.8757 99.0401 37.8757 98.7549 37.8757C98.4698 37.8692 98.2105 37.866 97.9772 37.866C97.7439 37.866 97.5657 37.866 97.4425 37.866C97.2222 37.866 97.0407 37.8692 96.8981 37.8757C96.762 37.8757 96.6421 37.8757 96.5384 37.8757C96.4347 37.8822 96.3181 37.8854 96.1885 37.8854Z" fill="#01503A"/>
<path d="M102.015 37.8465C102.009 37.639 102.002 37.4119 101.996 37.1655C101.996 36.9125 101.986 36.6498 101.967 36.3773C101.999 36.3709 102.028 36.3676 102.054 36.3676C102.087 36.3676 102.119 36.3676 102.152 36.3676C102.223 36.8087 102.404 37.146 102.696 37.3795C102.994 37.6065 103.334 37.72 103.717 37.72C104.118 37.72 104.426 37.6033 104.64 37.3698C104.854 37.1363 104.961 36.8346 104.961 36.4649C104.961 36.173 104.899 35.9265 104.776 35.7255C104.653 35.5179 104.481 35.333 104.261 35.1709C104.047 35.0022 103.804 34.8336 103.532 34.6649C103.279 34.5028 103.033 34.3341 102.793 34.159C102.56 33.9773 102.369 33.7698 102.22 33.5363C102.07 33.3028 101.996 33.0206 101.996 32.6898C101.996 32.346 102.08 32.0444 102.249 31.7849C102.424 31.5255 102.66 31.3244 102.958 31.1817C103.263 31.0325 103.606 30.9579 103.989 30.9579C104.106 30.9579 104.209 30.9644 104.3 30.9773C104.397 30.9903 104.507 31.0033 104.63 31.0163C104.754 31.0292 104.854 31.039 104.932 31.0455C105.01 31.0519 105.081 31.0552 105.146 31.0552C105.159 31.0552 105.181 31.0552 105.214 31.0552C105.246 31.0552 105.285 31.0519 105.33 31.0455L105.408 32.4271C105.369 32.4336 105.334 32.44 105.301 32.4465C105.275 32.4465 105.246 32.4465 105.214 32.4465C105.181 32.239 105.123 32.0541 105.039 31.8919C104.961 31.7298 104.87 31.6033 104.767 31.5125C104.656 31.4152 104.52 31.3438 104.358 31.2984C104.196 31.253 104.037 31.2303 103.882 31.2303C103.545 31.2303 103.263 31.3309 103.036 31.5319C102.816 31.7265 102.706 32.0055 102.706 32.3687C102.706 32.6346 102.767 32.8649 102.89 33.0595C103.013 33.2476 103.179 33.4228 103.386 33.5849C103.594 33.7406 103.827 33.9028 104.086 34.0714C104.339 34.2336 104.585 34.4119 104.825 34.6065C105.065 34.7946 105.259 35.0152 105.408 35.2682C105.564 35.5146 105.642 35.8163 105.642 36.173C105.642 36.4909 105.57 36.7892 105.428 37.0682C105.285 37.3406 105.068 37.5644 104.776 37.7395C104.485 37.9082 104.115 37.9925 103.668 37.9925C103.571 37.9925 103.461 37.986 103.338 37.973C103.221 37.9601 103.046 37.9406 102.813 37.9146C102.618 37.8887 102.463 37.8725 102.346 37.866C102.236 37.853 102.126 37.8465 102.015 37.8465Z" fill="#01503A"/>
<path d="M106.722 34.259C106.722 34.0799 106.867 33.9347 107.046 33.9347H127.736V35.0158H107.046C106.867 35.0158 106.722 34.8705 106.722 34.6915V34.259Z" fill="#01503A"/>
</g>
<defs>
<linearGradient id="paint0_linear_288_280" x1="0.0396981" y1="-7.29543" x2="130.765" y2="38.5815" gradientUnits="userSpaceOnUse">
<stop stop-color="#FCCA8B"/>
<stop offset="1" stop-color="#FEEAD1"/>
</linearGradient>
<linearGradient id="paint1_linear_288_280" x1="0.0397328" y1="-7.29513" x2="130.765" y2="38.5818" gradientUnits="userSpaceOnUse">
<stop stop-color="#FCCA8B"/>
<stop offset="1" stop-color="#FEEAD1"/>
</linearGradient>
<linearGradient id="paint2_linear_288_280" x1="0.0396912" y1="-7.29531" x2="130.765" y2="38.5816" gradientUnits="userSpaceOnUse">
<stop stop-color="#FCCA8B"/>
<stop offset="1" stop-color="#FEEAD1"/>
</linearGradient>
<linearGradient id="paint3_linear_288_280" x1="0.0395708" y1="-7.29513" x2="130.765" y2="38.5818" gradientUnits="userSpaceOnUse">
<stop stop-color="#FCCA8B"/>
<stop offset="1" stop-color="#FEEAD1"/>
</linearGradient>
<linearGradient id="paint4_linear_288_280" x1="0.0395541" y1="-7.29513" x2="130.764" y2="38.5818" gradientUnits="userSpaceOnUse">
<stop stop-color="#FCCA8B"/>
<stop offset="1" stop-color="#FEEAD1"/>
</linearGradient>
<linearGradient id="paint5_linear_288_280" x1="0.0398361" y1="-7.29513" x2="130.765" y2="38.5818" gradientUnits="userSpaceOnUse">
<stop stop-color="#FCCA8B"/>
<stop offset="1" stop-color="#FEEAD1"/>
</linearGradient>
<clipPath id="clip0_288_280">
<rect width="128" height="40" fill="white"/>
</clipPath>
</defs>
</svg>
